<?xml version="1.0" encoding="utf-8"?>
<!-- Generated by IcoMoon.io -->
<svg version="1.1" xmlns="http://www.w3.org/2000/svg" xmlns:xlink="http://www.w3.org/1999/xlink" width="30" height="30" viewBox="0 0 30 30">
<svg id="icon-close" width="30" height="30" viewBox="0 0 30 30" x="0" y="0">
<path d="M30 15c0 8.284-6.716 15-15 15s-15-6.716-15-15c0-8.284 6.716-15 15-15s15 6.716 15 15z"></path>
<path stroke="#000" stroke-linejoin="miter" stroke-linecap="butt" stroke-miterlimit="4" stroke-width="1" d="M29.5 15c0 8.008-6.492 14.5-14.5 14.5s-14.5-6.492-14.5-14.5c0-8.008 6.492-14.5 14.5-14.5s14.5 6.492 14.5 14.5z"></path>
<path d="M21 10.108l-1.108-1.108-4.392 4.392-4.392-4.392-1.108 1.108 4.392 4.392-4.392 4.392 1.108 1.108 4.392-4.392 4.392 4.392 1.108-1.108-4.392-4.392 4.392-4.392z"></path>
</svg>
</svg>
