<?xml version="1.0" encoding="utf-8"?>
<!-- Generated by IcoMoon.io -->
<svg version="1.1" xmlns="http://www.w3.org/2000/svg" xmlns:xlink="http://www.w3.org/1999/xlink" width="1936" height="106" viewBox="0 0 1936 106">
<svg id="icon-Logo-3" width="187" height="106" viewBox="0 0 187 106" x="0" y="0">
<path fill="#afb1b8" d="M67.133 12.367l12.38 11.72-22.98-0.013v56.864h60.067v-21.742l12.367 11.707v-58.536h-61.833zM116.057 57.82l-35.103-33.232h35.103v33.232zM105.157 72.62h-39.119v-38.244h2.765v35.655h36.354v2.59zM75.276 88.508l-1.445 2.976-1.445-2.976h-1.212l2.109 3.968v2.312h1.096v-2.312l2.105-3.968h-1.208zM77.092 94.788l0.509-1.462h2.433l0.513 1.462h1.139l-2.377-6.28h-0.979l-2.372 6.28h1.134zM78.817 89.841l0.91 2.605h-1.82l0.91-2.605zM84.571 92.295c-0.158 0.242-0.237 0.507-0.237 0.798 0 0.529 0.186 0.959 0.556 1.29 0.374 0.328 0.871 0.492 1.492 0.492s1.156-0.168 1.604-0.505l0.354 0.418h1.216l-0.923-1.091c0.362-0.494 0.543-1.129 0.543-1.902h-0.91c0 0.423-0.088 0.806-0.263 1.152l-1.212-1.432 0.427-0.311c0.302-0.219 0.519-0.437 0.651-0.656 0.132-0.221 0.198-0.463 0.198-0.725 0-0.397-0.147-0.729-0.44-0.996-0.29-0.27-0.664-0.405-1.121-0.405-0.506 0-0.909 0.144-1.208 0.431-0.299 0.285-0.449 0.673-0.449 1.165 0 0.201 0.048 0.41 0.142 0.625 0.098 0.216 0.269 0.477 0.513 0.785-0.466 0.334-0.778 0.622-0.936 0.867zM87.404 93.684c-0.308 0.236-0.638 0.354-0.992 0.354-0.313 0-0.564-0.091-0.75-0.272s-0.28-0.417-0.28-0.707c0-0.336 0.173-0.635 0.518-0.897l0.134-0.095 1.371 1.617zM86.279 90.902c-0.296-0.365-0.444-0.669-0.444-0.91 0-0.21 0.060-0.384 0.181-0.522s0.283-0.207 0.487-0.207c0.19 0 0.346 0.059 0.47 0.177 0.124 0.115 0.186 0.254 0.186 0.418 0 0.247-0.089 0.45-0.267 0.608l-0.134 0.108-0.479 0.328zM96.501 94.314c0.431-0.377 0.679-0.9 0.742-1.57h-1.087c-0.057 0.449-0.194 0.769-0.41 0.962s-0.538 0.289-0.966 0.289c-0.469 0-0.825-0.178-1.070-0.535-0.242-0.357-0.362-0.874-0.362-1.553v-0.556c0.006-0.67 0.135-1.177 0.388-1.523 0.256-0.348 0.621-0.522 1.096-0.522 0.408 0 0.717 0.101 0.927 0.302 0.213 0.198 0.345 0.523 0.397 0.975h1.087c-0.069-0.687-0.315-1.219-0.738-1.596s-0.98-0.565-1.674-0.565c-0.515 0-0.969 0.122-1.363 0.367-0.391 0.245-0.691 0.592-0.901 1.044s-0.315 0.973-0.315 1.566v0.587c0.008 0.578 0.116 1.085 0.323 1.523s0.5 0.775 0.88 1.014c0.382 0.236 0.824 0.354 1.324 0.354 0.716 0 1.29-0.187 1.721-0.561zM102.914 93.434c0.213-0.466 0.319-1.006 0.319-1.622v-0.349c-0.003-0.613-0.112-1.149-0.328-1.609-0.216-0.463-0.522-0.817-0.919-1.061-0.394-0.247-0.847-0.371-1.359-0.371s-0.966 0.125-1.363 0.375c-0.394 0.247-0.7 0.605-0.919 1.074-0.216 0.469-0.323 1.009-0.323 1.622v0.354c0.003 0.601 0.112 1.131 0.328 1.591 0.219 0.46 0.526 0.815 0.923 1.065 0.4 0.247 0.854 0.371 1.363 0.371 0.515 0 0.969-0.124 1.363-0.371 0.397-0.25 0.702-0.607 0.914-1.070zM101.746 89.884c0.264 0.371 0.397 0.904 0.397 1.6v0.328c0 0.707-0.131 1.245-0.393 1.613-0.259 0.368-0.63 0.552-1.113 0.552-0.477 0-0.851-0.188-1.121-0.565-0.267-0.377-0.401-0.91-0.401-1.6v-0.362c0.006-0.676 0.141-1.198 0.405-1.566 0.267-0.371 0.637-0.556 1.109-0.556 0.483 0 0.855 0.186 1.117 0.556z"></path>
</svg>
<svg id="icon-Logo-2" width="187" height="106" viewBox="0 0 187 106" x="244" y="0">
<path fill="#afb1b8" d="M64.318 86.746c0.028 0.001 0.056 0.006 0.081 0.016s0.049 0.025 0.068 0.042l0.385 0.368c-0.299 0.298-0.669 0.537-1.084 0.699-0.486 0.177-1.010 0.263-1.537 0.251-0.495 0.009-0.987-0.071-1.445-0.234-0.413-0.15-0.784-0.376-1.089-0.661-0.31-0.296-0.55-0.644-0.703-1.021-0.168-0.421-0.251-0.864-0.246-1.31-0.007-0.449 0.083-0.894 0.265-1.314 0.168-0.38 0.422-0.727 0.747-1.021 0.329-0.288 0.722-0.515 1.156-0.666 0.474-0.16 0.98-0.239 1.488-0.234 0.473-0.010 0.943 0.063 1.382 0.213 0.381 0.144 0.732 0.343 1.036 0.59l-0.323 0.393c-0.022 0.028-0.050 0.052-0.082 0.071-0.038 0.023-0.084 0.033-0.13 0.029-0.050-0.003-0.098-0.017-0.14-0.042l-0.173-0.105-0.241-0.134c-0.104-0.050-0.212-0.093-0.323-0.13-0.143-0.045-0.289-0.079-0.438-0.105-0.189-0.030-0.381-0.044-0.573-0.042-0.366-0.004-0.73 0.056-1.069 0.176-0.317 0.111-0.602 0.279-0.838 0.494-0.24 0.228-0.425 0.496-0.544 0.787-0.136 0.333-0.203 0.685-0.198 1.038-0.006 0.359 0.061 0.716 0.198 1.055 0.117 0.289 0.299 0.555 0.535 0.783 0.221 0.213 0.494 0.379 0.8 0.486 0.314 0.113 0.652 0.17 0.992 0.167 0.196 0.003 0.393-0.008 0.588-0.033 0.318-0.034 0.622-0.13 0.891-0.281 0.135-0.077 0.262-0.164 0.381-0.26 0.049-0.041 0.115-0.065 0.183-0.067v0z"></path>
<path fill="#afb1b8" d="M75.444 84.895c0.006 0.444-0.082 0.885-0.26 1.302-0.157 0.378-0.404 0.722-0.726 1.011s-0.709 0.515-1.138 0.664c-0.943 0.313-1.986 0.313-2.929 0-0.426-0.151-0.812-0.378-1.132-0.666-0.321-0.294-0.57-0.641-0.732-1.021-0.347-0.843-0.347-1.765 0-2.607 0.164-0.38 0.413-0.729 0.732-1.026 0.323-0.279 0.708-0.497 1.132-0.64 0.942-0.318 1.987-0.318 2.929 0 0.428 0.151 0.815 0.378 1.137 0.666 0.317 0.291 0.564 0.634 0.727 1.009 0.178 0.419 0.267 0.863 0.26 1.31zM74.433 84.895c0.008-0.355-0.054-0.709-0.183-1.046-0.108-0.289-0.283-0.555-0.515-0.783-0.226-0.215-0.504-0.384-0.814-0.494-0.685-0.229-1.444-0.229-2.129 0-0.31 0.11-0.588 0.279-0.814 0.494-0.235 0.226-0.413 0.493-0.52 0.783-0.245 0.681-0.245 1.411 0 2.093 0.109 0.29 0.286 0.556 0.52 0.783 0.226 0.214 0.504 0.381 0.814 0.49 0.687 0.223 1.442 0.223 2.129 0 0.31-0.109 0.588-0.276 0.814-0.49 0.231-0.228 0.406-0.494 0.515-0.783 0.129-0.337 0.191-0.691 0.183-1.046v0z"></path>
<path fill="#afb1b8" d="M83.036 85.992l0.101 0.234c0.039-0.084 0.072-0.159 0.111-0.234 0.037-0.079 0.078-0.155 0.125-0.23l2.461-3.888c0.048-0.067 0.092-0.109 0.14-0.121 0.065-0.017 0.134-0.024 0.202-0.021h0.727v6.323h-0.862v-4.649c0-0.059 0-0.126 0-0.197-0.005-0.072-0.005-0.145 0-0.218l-2.476 3.942c-0.031 0.059-0.082 0.109-0.145 0.144s-0.137 0.053-0.211 0.053h-0.14c-0.075 0.001-0.149-0.017-0.212-0.052s-0.113-0.085-0.145-0.145l-2.548-3.967c0 0.075 0 0.151 0 0.226s0 0.142 0 0.201v4.649h-0.833v-6.311h0.727c0.068-0.004 0.137 0.004 0.202 0.021 0.060 0.026 0.107 0.069 0.135 0.121l2.514 3.892c0.049 0.072 0.091 0.148 0.125 0.226v0z"></path>
<path fill="#afb1b8" d="M92.298 85.678v2.369h-0.963v-6.315h2.148c0.405-0.007 0.81 0.040 1.199 0.138 0.312 0.077 0.601 0.211 0.848 0.393 0.214 0.171 0.379 0.383 0.482 0.619 0.114 0.258 0.169 0.532 0.164 0.808 0.004 0.277-0.056 0.552-0.178 0.808-0.116 0.242-0.294 0.458-0.52 0.632-0.247 0.19-0.538 0.333-0.853 0.418-0.375 0.104-0.767 0.154-1.161 0.146l-1.166-0.017zM92.298 85h1.166c0.253 0.003 0.505-0.030 0.747-0.096 0.199-0.058 0.382-0.151 0.54-0.272 0.145-0.116 0.257-0.259 0.328-0.419 0.079-0.169 0.118-0.349 0.116-0.531 0.011-0.176-0.022-0.351-0.097-0.514s-0.19-0.311-0.337-0.431c-0.368-0.25-0.83-0.371-1.296-0.339h-1.166v2.603z"></path>
<path fill="#afb1b8" d="M105.246 88.055h-0.761c-0.076 0.002-0.151-0.018-0.212-0.059-0.055-0.039-0.098-0.090-0.125-0.146l-0.655-1.528h-3.29l-0.679 1.528c-0.025 0.056-0.066 0.105-0.12 0.142-0.061 0.043-0.138 0.065-0.217 0.063h-0.761l2.89-6.324h1.002l2.929 6.324zM100.477 85.707h2.717l-1.146-2.574c-0.088-0.194-0.16-0.392-0.217-0.594l-0.111 0.331c-0.034 0.1-0.072 0.193-0.106 0.268l-1.137 2.57z"></path>
<path fill="#afb1b8" d="M109.408 81.76c0.058 0.027 0.107 0.066 0.145 0.113l4.215 4.767c0-0.075 0-0.151 0-0.222s0-0.142 0-0.209v-4.478h0.862v6.324h-0.482c-0.068 0.002-0.136-0.011-0.198-0.038-0.059-0.030-0.112-0.070-0.154-0.117l-4.21-4.763c0.005 0.072 0.005 0.145 0 0.218 0 0.071 0 0.134 0 0.192v4.507h-0.862v-6.324h0.511c0.060-0.001 0.119 0.008 0.173 0.029v0z"></path>
<path fill="#afb1b8" d="M121.729 85.54v2.511h-0.963v-2.511l-2.664-3.808h0.862c0.074-0.004 0.148 0.015 0.207 0.054 0.052 0.041 0.096 0.089 0.13 0.142l1.667 2.457c0.067 0.105 0.125 0.201 0.173 0.293s0.087 0.18 0.12 0.268l0.125-0.272c0.047-0.099 0.101-0.196 0.164-0.289l1.642-2.474c0.035-0.049 0.077-0.094 0.125-0.134 0.057-0.043 0.131-0.066 0.207-0.063h0.872l-2.669 3.825z"></path>
<path fill="#afb1b8" d="M82.559 71.119c0.419 0.046 0.843 0.084 1.272 0.117 6.499-2.526 11.997-6.661 15.807-11.887s5.762-11.312 5.613-17.497l-7.163-6.223c1.456 6.585 0.775 13.392-1.967 19.66s-7.438 11.749-13.562 15.83v0z"></path>
<path fill="#afb1b8" d="M80.001 70.83l0.193 0.033c6.543-4.067 11.532-9.745 14.321-16.302s3.25-13.689 1.323-20.476l-10.202-8.864c4.126 7.286 5.787 15.44 4.79 23.513s-4.613 15.735-10.425 22.094v0z"></path>
<path fill="#afb1b8" d="M114.6 49.16c-1.733 6.796-5.943 12.925-12.003 17.477-1.77 1.337-3.679 2.528-5.703 3.557 4.935-1.26 9.471-3.488 13.258-6.513s6.725-6.764 8.585-10.93l-4.138-3.591z"></path>
<path fill="#afb1b8" d="M112.977 48.16l-5.891-5.118c-0.113 5.835-2.022 11.538-5.53 16.516s-8.486 9.048-14.417 11.788h0.029c1.322-0 2.642-0.069 3.955-0.205 5.543-1.966 10.439-5.093 14.252-9.103s6.425-8.777 7.601-13.877v0z"></path>
<path fill="#afb1b8" d="M80.854 21.484l-7.028-6.114c-6.282 2.109-11.686 5.817-15.502 10.639s-5.869 10.532-5.889 16.384v0c0.023 6.466 2.528 12.741 7.118 17.831s11.002 8.705 18.223 10.272c6.446-6.823 10.219-15.254 10.773-24.068s-2.142-17.552-7.695-24.943v0z"></path>
<path fill="#afb1b8" d="M129.214 47.218c-0.025-7.672-3.544-15.023-9.788-20.448s-14.704-8.482-23.534-8.504v0c-4.080-0.004-8.126 0.65-11.931 1.929l43.028 37.385c1.473-3.305 2.228-6.818 2.225-10.362v0z"></path>
</svg>
<svg id="icon-Logo-1" width="187" height="106" viewBox="0 0 187 106" x="488" y="0">
<path fill="#afb1b8" d="M88.534 10.484h-0.241c-0.371-0.022-0.742-0.031-1.113-0.040v0h-0.804c-0.702 0-1.417 0.018-2.127 0.054-0.054-0.004-0.107-0.004-0.161 0-6.438 0.365-12.746 1.974-18.578 4.74l-0.764 0.368v39.116l1.788-0.606c1.569-0.539 3.24-1.024 4.97-1.474 4.675-1.2 9.476-1.838 14.302-1.9v5.139c-0.639 0.005-1.26 0.023-1.882 0.054h-0.148c-3.714 0.204-7.398 0.769-11.003 1.689-4.565 1.143-8.969 2.859-13.108 5.108v-50.168c4.298-2.507 8.928-4.39 13.752-5.593 4.235-1.093 8.588-1.655 12.961-1.671h0.755c0.903 0.022 1.783 0.063 2.61 0.126 2.178 0.153 4.339 0.497 6.458 1.029v5.058c-2.058-0.479-4.15-0.795-6.257-0.943-0.043-0.004-0.086-0.007-0.128-0.011-0.436-0.037-0.873-0.074-1.28-0.074zM97.437 15.655c1.122 0.085 2.284 0.126 3.459 0.126 4.596-0.017 9.173-0.604 13.626-1.748 4.563-1.147 8.965-2.865 13.104-5.112v49.273c-4.301 2.506-8.932 4.389-13.756 5.593-4.236 1.089-8.589 1.649-12.961 1.667-3.313 0.027-6.616-0.363-9.832-1.159v-49.592c0.76 0.175 1.542 0.337 2.337 0.472 1.305 0.22 2.682 0.382 4.022 0.481zM122.513 16.037l-1.788 0.602c-1.645 0.553-3.303 1.047-4.97 1.487-4.853 1.247-9.842 1.887-14.851 1.905-1.166 0-2.239-0.031-3.276-0.099l-1.426-0.094v40.239l1.224 0.108c1.135 0.099 2.306 0.148 3.486 0.148 3.946-0.017 7.874-0.525 11.696-1.514 3.147-0.789 6.208-1.889 9.139-3.284l0.764-0.368v-39.13z"></path>
<path fill="#afb1b8" d="M63.136 79.875c-0.257-0.267-0.567-0.476-0.909-0.614s-0.71-0.203-1.079-0.19c-0.393-0.005-0.784 0.068-1.149 0.216-0.335 0.133-0.639 0.333-0.894 0.588-0.252 0.256-0.449 0.562-0.576 0.899-0.14 0.353-0.21 0.73-0.206 1.11v6.703c-0.016 0.472 0.074 0.942 0.264 1.375 0.158 0.343 0.387 0.65 0.67 0.899 0.268 0.226 0.582 0.388 0.921 0.476 0.326 0.092 0.663 0.138 1.001 0.139 0.373 0.004 0.743-0.076 1.082-0.234 0.335-0.147 0.639-0.357 0.894-0.62 0.249-0.26 0.447-0.565 0.585-0.899 0.143-0.338 0.216-0.702 0.215-1.069v-0.75h-1.752v0.597c0.005 0.204-0.030 0.407-0.103 0.597-0.057 0.143-0.144 0.271-0.255 0.377-0.108 0.088-0.233 0.153-0.366 0.193-0.118 0.039-0.242 0.061-0.366 0.063-0.157 0.018-0.315-0.005-0.459-0.069s-0.27-0.163-0.363-0.291c-0.165-0.269-0.246-0.582-0.232-0.899v-6.249c-0.011-0.346 0.063-0.69 0.214-1.002 0.091-0.142 0.22-0.254 0.371-0.326s0.32-0.099 0.487-0.078c0.151-0.005 0.301 0.026 0.437 0.092s0.255 0.164 0.345 0.285c0.196 0.257 0.299 0.575 0.29 0.899v0.579h1.734v-0.683c0.003-0.401-0.069-0.799-0.215-1.173-0.129-0.351-0.329-0.672-0.585-0.943v0z"></path>
<path fill="#afb1b8" d="M73.544 79.799c-0.559-0.472-1.264-0.732-1.993-0.737-0.357 0.001-0.711 0.065-1.046 0.189-0.34 0.122-0.654 0.308-0.925 0.548-0.29 0.261-0.522 0.581-0.679 0.939-0.176 0.409-0.263 0.852-0.255 1.298v6.429c-0.012 0.452 0.075 0.902 0.255 1.316 0.159 0.346 0.39 0.652 0.679 0.898 0.268 0.249 0.582 0.441 0.925 0.566 0.335 0.123 0.689 0.187 1.046 0.189 0.357-0.001 0.711-0.065 1.046-0.189 0.349-0.127 0.67-0.319 0.947-0.566 0.279-0.251 0.505-0.556 0.661-0.898 0.18-0.415 0.267-0.864 0.255-1.316v-6.429c0.009-0.446-0.078-0.889-0.255-1.298-0.156-0.354-0.381-0.673-0.661-0.939v0zM72.727 88.465c0.015 0.171-0.009 0.344-0.069 0.505s-0.156 0.306-0.279 0.425c-0.231 0.194-0.523 0.3-0.825 0.3s-0.593-0.106-0.825-0.3c-0.124-0.119-0.219-0.264-0.279-0.425s-0.084-0.333-0.069-0.505v-6.429c-0.015-0.171 0.009-0.344 0.069-0.505s0.156-0.306 0.279-0.425c0.231-0.194 0.523-0.3 0.825-0.3s0.593 0.106 0.825 0.3c0.123 0.119 0.219 0.264 0.279 0.425s0.084 0.333 0.069 0.505v6.429z"></path>
<path fill="#afb1b8" d="M87.216 91.336v-12.17h-1.685l-2.212 6.442h-0.031l-2.23-6.442h-1.667v12.17h1.739v-7.404h0.031l1.703 5.234h0.867l1.716-5.234h0.031v7.404h1.739z"></path>
<path fill="#afb1b8" d="M97.093 80.019c-0.268-0.3-0.606-0.529-0.983-0.665-0.407-0.132-0.833-0.196-1.26-0.189h-2.583v12.17h1.734v-4.753h0.894c0.541 0.025 1.079-0.090 1.564-0.332 0.394-0.219 0.723-0.54 0.952-0.93 0.201-0.324 0.336-0.684 0.398-1.060 0.068-0.458 0.1-0.921 0.094-1.384 0.017-0.584-0.040-1.169-0.17-1.739-0.116-0.421-0.335-0.806-0.639-1.119v0zM96.199 83.73c-0.007 0.22-0.062 0.437-0.161 0.634-0.099 0.187-0.256 0.337-0.447 0.427-0.257 0.115-0.537 0.167-0.818 0.153h-0.791v-4.138h0.894c0.269-0.013 0.537 0.039 0.782 0.153 0.179 0.103 0.322 0.26 0.407 0.449 0.095 0.214 0.146 0.444 0.152 0.678 0 0.256 0 0.526 0 0.809s0.018 0.575 0 0.836h-0.018z"></path>
<path fill="#afb1b8" d="M105.307 79.166h-1.421l-2.681 12.17h1.734l0.51-2.615h2.364l0.51 2.615h1.734l-2.749-12.17zM103.707 87.063l0.854-4.412h0.031l0.849 4.412h-1.734z"></path>
<path fill="#afb1b8" d="M116.511 86.497h-0.031l-2.619-7.332h-1.667v12.17h1.734v-7.318h0.036l2.65 7.318h1.631v-12.17h-1.734v7.332z"></path>
<path fill="#afb1b8" d="M127.107 79.166l-1.394 4.838h-0.036l-1.394-4.838h-1.837l2.382 7.026v5.144h1.734v-5.144l2.382-7.026h-1.837z"></path>
<path fill="#afb1b8" d="M58.3 94.772h0.836v2.345h0.567v-2.345h0.831v-0.481h-2.235v0.481z"></path>
<path fill="#afb1b8" d="M65.326 94.291l-1.095 2.826h0.603l0.232-0.642h1.126l0.241 0.642h0.617l-1.122-2.826h-0.603zM65.236 95.998l0.384-1.047 0.384 1.047h-0.769z"></path>
<path fill="#afb1b8" d="M72.271 96.075h0.653v0.364c-0.191 0.153-0.427 0.237-0.67 0.238-0.114 0.006-0.228-0.015-0.332-0.062s-0.196-0.118-0.267-0.208c-0.15-0.215-0.224-0.475-0.21-0.737 0-0.629 0.273-0.943 0.813-0.943 0.142-0.014 0.285 0.023 0.402 0.106s0.201 0.204 0.237 0.343l0.559-0.108c-0.121-0.553-0.518-0.831-1.198-0.831-0.363-0.010-0.717 0.12-0.988 0.364-0.142 0.14-0.253 0.311-0.323 0.498s-0.099 0.389-0.084 0.589c-0.017 0.387 0.113 0.765 0.362 1.060 0.138 0.143 0.306 0.254 0.491 0.325s0.384 0.101 0.581 0.088c0.442 0.012 0.872-0.149 1.198-0.449v-1.114h-1.225v0.476z"></path>
<path fill="#afb1b8" d="M79.363 94.291h-0.572v2.826h1.98v-0.481h-1.408v-2.345z"></path>
<path fill="#afb1b8" d="M85.361 94.291h-0.572v2.826h0.572v-2.826z"></path>
<path fill="#afb1b8" d="M91.224 96.178l-1.158-1.887h-0.554v2.826h0.532v-1.846l1.135 1.846h0.568v-2.826h-0.523v1.887z"></path>
<path fill="#afb1b8" d="M96.525 95.873h1.408v-0.481h-1.408v-0.62h1.515v-0.481h-2.087v2.826h2.145v-0.481h-1.573v-0.764z"></path>
<path fill="#afb1b8" d="M109.378 95.405h-1.113v-1.114h-0.567v2.826h0.567v-1.235h1.113v1.235h0.568v-2.826h-0.568v1.114z"></path>
<path fill="#afb1b8" d="M114.71 95.873h1.412v-0.481h-1.412v-0.62h1.52v-0.481h-2.087v2.826h2.141v-0.481h-1.573v-0.764z"></path>
<path fill="#afb1b8" d="M121.941 95.873c0.491-0.076 0.742-0.337 0.742-0.786 0.014-0.12-0.004-0.242-0.053-0.353s-0.126-0.206-0.225-0.276c-0.256-0.129-0.541-0.186-0.827-0.166h-1.198v2.826h0.568v-1.182h0.112c0.121-0.007 0.242 0.014 0.353 0.063 0.083 0.051 0.152 0.122 0.201 0.207l0.617 0.899h0.679l-0.344-0.553c-0.152-0.273-0.367-0.505-0.626-0.678v0zM121.369 95.482h-0.42v-0.71h0.447c0.195-0.016 0.391 0.007 0.577 0.067 0.041 0.037 0.074 0.082 0.095 0.133s0.031 0.106 0.029 0.161c-0.003 0.055-0.017 0.109-0.044 0.158s-0.063 0.091-0.107 0.123c-0.187 0.057-0.382 0.080-0.577 0.067v0z"></path>
<path fill="#afb1b8" d="M127.394 95.873h1.408v-0.481h-1.408v-0.62h1.52v-0.481h-2.092v2.826h2.145v-0.481h-1.573v-0.764z"></path>
</svg>
<svg id="icon-Object" width="221" height="106" viewBox="0 0 221 106" x="732" y="0">
<path fill="#afb1b8" d="M111.712 50.428c-1.044-1.389-1.543-3.031-1.424-4.684v-6.792c0-2.082 0.472-3.664 1.416-4.746s2.566-1.621 4.865-1.617c2.161 0 3.694 0.461 4.601 1.382 0.989 1.175 1.471 2.613 1.36 4.062v1.596h-3.865v-1.617c0.014-0.529-0.024-1.058-0.112-1.582-0.056-0.358-0.25-0.69-0.552-0.94-0.397-0.27-0.897-0.4-1.4-0.366-0.529-0.034-1.055 0.104-1.472 0.387-0.337 0.277-0.561 0.64-0.64 1.036-0.111 0.555-0.162 1.117-0.152 1.679v8.242c-0.061 0.795 0.11 1.591 0.496 2.315 0.192 0.245 0.459 0.439 0.771 0.561s0.657 0.167 0.997 0.13c0.495 0.035 0.987-0.099 1.368-0.373 0.315-0.27 0.517-0.622 0.576-1.002 0.090-0.547 0.131-1.099 0.12-1.651v-1.672h3.865v1.527c0.109 1.511-0.361 3.011-1.336 4.27-0.888 1.009-2.401 1.513-4.625 1.513s-3.905-0.539-4.857-1.658z"></path>
<path fill="#afb1b8" d="M127.805 50.497c-0.976-1.057-1.464-2.598-1.464-4.636v-7.144c0-2.017 0.488-3.544 1.464-4.581s2.609-1.552 4.897-1.548c2.273 0 3.897 0.516 4.873 1.548 0.976 1.036 1.472 2.563 1.472 4.581v7.144c0 2.017-0.496 3.565-1.488 4.629s-2.609 1.596-4.857 1.596c-2.249 0-3.913-0.539-4.897-1.589zM134.503 48.784c0.35-0.662 0.509-1.387 0.464-2.114v-8.747c0.045-0.713-0.112-1.424-0.456-2.073-0.196-0.25-0.47-0.447-0.789-0.57s-0.673-0.164-1.019-0.121c-0.347-0.042-0.701 0.001-1.022 0.123s-0.596 0.319-0.794 0.568c-0.352 0.647-0.511 1.359-0.464 2.073v8.788c-0.049 0.727 0.111 1.453 0.464 2.114 0.225 0.223 0.503 0.401 0.815 0.524s0.651 0.186 0.993 0.186c0.343 0 0.681-0.063 0.993-0.186s0.59-0.301 0.815-0.524v-0.041z"></path>
<path fill="#afb1b8" d="M143.697 32.798h4.161l3.129 13.181 3.201-13.181h4.049l0.408 19.025h-2.993l-0.32-13.222-3.089 13.222h-2.401l-3.201-13.271-0.296 13.271h-3.025l0.376-19.025z"></path>
<path fill="#afb1b8" d="M163.311 32.798h6.482c3.735 0 5.602 1.801 5.602 5.402 0 3.449-1.966 5.172-5.898 5.167h-2.209v8.456h-4.001l0.024-19.025zM168.849 40.929c0.395 0.043 0.797 0.012 1.177-0.092s0.729-0.278 1.024-0.509c0.459-0.643 0.661-1.397 0.576-2.148 0.021-0.58-0.044-1.161-0.192-1.727-0.057-0.189-0.157-0.367-0.294-0.522s-0.309-0.285-0.506-0.383c-0.555-0.23-1.169-0.334-1.784-0.304h-1.553v5.685h1.553z"></path>
<path fill="#afb1b8" d="M181.164 32.798h4.297l4.409 19.025h-3.729l-0.872-4.387h-3.833l-0.896 4.387h-3.785l4.409-19.025zM184.837 45.233l-1.497-7.986-1.496 7.986h2.993z"></path>
<path fill="#afb1b8" d="M193.432 32.798h2.801l5.362 10.853v-10.853h3.321v19.025h-2.665l-5.393-11.329v11.329h-3.433l0.008-19.025z"></path>
<path fill="#afb1b8" d="M212.694 44.569l-4.457-11.745h3.753l2.721 7.544 2.553-7.544h3.673l-4.401 11.745v7.254h-3.841v-7.254z"></path>
<path fill="#afb1b8" d="M117.89 60.141v0.995h-3.265v7.731h-1.369v-7.731h-3.281v-0.995h7.914z"></path>
<path fill="#afb1b8" d="M128.125 68.867h-1.056c-0.107 0.006-0.213-0.024-0.296-0.083-0.080-0.051-0.141-0.12-0.176-0.2l-0.944-2.073h-4.529l-0.944 2.073c-0.027 0.087-0.076 0.167-0.144 0.235-0.084 0.058-0.189 0.087-0.296 0.083h-1.056l4.001-8.725h1.393l4.049 8.691zM121.499 65.627h3.777l-1.601-3.551c-0.118-0.269-0.217-0.543-0.296-0.822-0.056 0.166-0.104 0.325-0.152 0.463l-0.144 0.366-1.585 3.544z"></path>
<path fill="#afb1b8" d="M135.023 68.011c0.251 0.011 0.502 0.011 0.752 0 0.216-0.019 0.431-0.054 0.64-0.104 0.196-0.042 0.389-0.095 0.576-0.159 0.176-0.062 0.352-0.138 0.536-0.214v-1.962h-1.6c-0.040 0.002-0.079-0.003-0.116-0.015s-0.071-0.030-0.1-0.054c-0.026-0.020-0.047-0.044-0.061-0.072s-0.020-0.057-0.019-0.087v-0.67h3.105v3.344c-0.253 0.156-0.521 0.295-0.8 0.415-0.285 0.122-0.582 0.221-0.888 0.297-0.327 0.083-0.662 0.143-1 0.18-0.388 0.037-0.778 0.056-1.168 0.055-0.69 0.005-1.375-0.105-2.017-0.325-0.599-0.208-1.143-0.518-1.6-0.912-0.445-0.398-0.796-0.867-1.032-1.382-0.252-0.579-0.377-1.192-0.368-1.81-0.008-0.622 0.114-1.24 0.36-1.824 0.23-0.517 0.582-0.988 1.032-1.382 0.457-0.393 1.001-0.701 1.601-0.905 0.685-0.223 1.412-0.333 2.145-0.325 0.373-0 0.745 0.025 1.112 0.076 0.325 0.046 0.644 0.12 0.952 0.221 0.28 0.091 0.548 0.207 0.8 0.345 0.245 0.136 0.478 0.289 0.696 0.456l-0.384 0.539c-0.030 0.049-0.075 0.091-0.13 0.12s-0.118 0.045-0.182 0.046c-0.089-0.002-0.175-0.026-0.248-0.069-0.12-0.055-0.248-0.124-0.392-0.207-0.17-0.092-0.35-0.171-0.536-0.235-0.238-0.083-0.485-0.147-0.736-0.194-0.335-0.053-0.676-0.079-1.016-0.076-0.528-0.005-1.052 0.077-1.544 0.242-0.445 0.154-0.847 0.39-1.176 0.691-0.332 0.314-0.585 0.683-0.744 1.085-0.357 0.945-0.357 1.964 0 2.909 0.175 0.41 0.448 0.785 0.8 1.099 0.328 0.299 0.726 0.535 1.168 0.691 0.509 0.151 1.048 0.21 1.584 0.173v0z"></path>
<path fill="#afb1b8" d="M147.779 67.872h4.369v0.995h-5.706v-8.726h1.368l-0.032 7.731z"></path>
<path fill="#afb1b8" d="M156.693 68.867h-1.369v-8.726h1.369v8.726z"></path>
<path fill="#afb1b8" d="M161.783 60.183c0.081 0.040 0.152 0.094 0.208 0.159l5.85 6.577c-0.008-0.103-0.008-0.207 0-0.311 0-0.097 0-0.193 0-0.283v-6.218h1.192v8.761h-0.688c-0.102 0.007-0.204-0.010-0.296-0.049-0.083-0.043-0.156-0.1-0.216-0.166l-5.842-6.571c0 0.104 0 0.2 0 0.297s0 0.187 0 0.269v6.218h-1.144v-8.726h0.712c0.077 0 0.154 0.014 0.224 0.041v0z"></path>
<path fill="#afb1b8" d="M179.108 60.141v0.96h-4.849v2.881h3.929v0.926h-3.929v2.978h4.849v0.96h-6.258v-8.705h6.258z"></path>
<path fill="#afb1b8" d="M35.714 6.255l60.762 14.895v52.194l-60.762-14.888v-52.201zM31.817 1.806v59.186l68.548 16.809v-59.179l-68.548-16.815z"></path>
<path fill="#afb1b8" d="M68.556 105.275l-68.556-16.823v-59.18l68.556 16.816v59.186z"></path>
<path fill="#afb1b8" d="M32.953 5.585l59.969 14.708-25.503 22.024-59.977-14.715 25.511-22.017zM31.817 1.806l-31.817 27.468 68.556 16.815 31.809-27.468-68.548-16.815z"></path>
<path fill="#afb1b8" d="M72.413 101.946l27.952-24.138-27.952-6.86v30.998z"></path>
</svg>
<svg id="icon-Logo" width="187" height="106" viewBox="0 0 187 106" x="976" y="0">
<path fill="#afb1b8" d="M47.271 79.032c0.431 0.488 0.66 1.099 0.648 1.726 0.022 0.409-0.057 0.817-0.231 1.195s-0.438 0.714-0.773 0.985c-0.836 0.578-1.872 0.861-2.918 0.796h-5.13v-10.938h5.025c0.992-0.060 1.976 0.196 2.784 0.727 0.324 0.249 0.581 0.563 0.75 0.918s0.246 0.741 0.224 1.129c0.030 0.603-0.177 1.197-0.584 1.673-0.39 0.435-0.929 0.736-1.529 0.855 0.681 0.114 1.295 0.445 1.733 0.935v0zM41.254 77.381h2.148c0.488 0.033 0.973-0.096 1.366-0.363 0.161-0.134 0.287-0.3 0.367-0.485s0.112-0.385 0.094-0.584c0.015-0.198-0.018-0.396-0.096-0.581s-0.201-0.351-0.359-0.488c-0.404-0.275-0.904-0.406-1.406-0.369h-2.113v2.869zM44.977 81.576c0.172-0.137 0.308-0.309 0.396-0.501s0.126-0.402 0.112-0.61c0.013-0.211-0.027-0.422-0.117-0.616s-0.228-0.368-0.402-0.506c-0.42-0.285-0.937-0.425-1.459-0.396h-2.253v3.008h2.282c0.514 0.027 1.022-0.107 1.442-0.379v0z"></path>
<path fill="#afb1b8" d="M57.542 83.735l-2.795-4.275h-1.050v4.275h-2.404v-10.938h4.552c1.147-0.073 2.282 0.26 3.169 0.93 0.636 0.594 1.020 1.376 1.082 2.206s-0.202 1.653-0.744 2.32c-0.562 0.589-1.329 0.982-2.171 1.111l2.976 4.371h-2.614zM53.696 77.969h1.967c1.366 0 2.048-0.552 2.048-1.656 0.014-0.225-0.023-0.451-0.11-0.663s-0.22-0.404-0.392-0.566c-0.432-0.329-0.987-0.488-1.547-0.443h-1.99l0.023 3.329z"></path>
<path fill="#afb1b8" d="M70.685 81.533h-4.791l-0.846 2.202h-2.521l4.4-10.815h2.725l4.383 10.815h-2.521l-0.829-2.202zM70.043 79.876l-1.751-4.617-1.751 4.617h3.502z"></path>
<path fill="#afb1b8" d="M87.136 83.735h-2.387l-5.352-7.438v7.438h-2.381v-10.938h2.381l5.352 7.481v-7.481h2.387v10.938z"></path>
<path fill="#afb1b8" d="M100.758 81.116c-0.494 0.826-1.246 1.498-2.159 1.929-1.039 0.481-2.192 0.717-3.356 0.689h-4.249v-10.938h4.249c1.162-0.028 2.313 0.203 3.356 0.673 0.914 0.422 1.666 1.087 2.159 1.908 0.491 0.89 0.747 1.872 0.747 2.869s-0.256 1.98-0.747 2.87v0zM98.026 80.855c0.681-0.727 1.056-1.653 1.056-2.61s-0.375-1.884-1.056-2.61c-0.823-0.658-1.897-0.992-2.988-0.93h-1.657v7.080h1.657c1.091 0.062 2.165-0.272 2.988-0.93z"></path>
<path fill="#afb1b8" d="M72.179 11.955c0 0 30.808 10.65 30.155 26.061v26.066c0 0-30.785-10.655-30.143-26.066l-0.012-26.061z"></path>
<path fill="#afb1b8" d="M129.78 57.979c5.819-3.666 12.549-5.937 19.574-6.605v-8.16c-8.095 2.857-14.962 8.036-19.574 14.764v0z"></path>
<path fill="#afb1b8" d="M126.284 60.437c4.762-8.78 13.018-15.555 23.070-18.932v-23.512c0 0-43.875 15.17-42.947 37.116v37.111c0 0 1.955-0.679 5.031-1.951 0-1.186 0-2.383 0.14-3.585 0.908-10.188 6.198-19.629 14.707-26.248v0z"></path>
<path fill="#afb1b8" d="M122.111 74.223c0.231-2.574 0.745-5.12 1.535-7.599-5.298 5.715-8.507 12.807-9.174 20.279-0.064 0.705-0.099 1.411-0.117 2.137 2.492-1.096 5.392-2.463 8.439-4.072-0.777-3.535-1.007-7.152-0.683-10.746v0z"></path>
<path fill="#afb1b8" d="M123.857 74.357c-0.292 3.251-0.11 6.524 0.543 9.731 11.987-6.567 25.457-16.715 24.937-28.978v-1.069c-8.564 0.877-16.577 4.305-22.807 9.757-1.459 3.379-2.359 6.937-2.673 10.559v0z"></path>
</svg>
<svg id="icon-group-2" width="214" height="106" viewBox="0 0 214 106" x="1220" y="0">
<path fill="#afb1b8" d="M33.179 33.069h-0.007c-6.052 0-10.958 4.36-10.958 9.739v0.006c0 5.378 4.906 9.739 10.958 9.739h0.007c6.052 0 10.958-4.36 10.958-9.739v-0.006c0-5.378-4.906-9.739-10.958-9.739z"></path>
<path fill="#afb1b8" d="M114.064 29.956c-0.017-7.471-3.363-14.631-9.307-19.914s-14-8.259-22.406-8.276v0c-8.409 0.014-16.468 2.988-22.415 8.271s-9.295 12.446-9.312 19.918v41.196c0 0 63.432-6.278 63.439-41.189v-0.006z"></path>
<path fill="#afb1b8" d="M0 84.673c0.015 5.198 2.345 10.179 6.48 13.855s9.74 5.748 15.589 5.764c5.848-0.015 11.451-2.087 15.586-5.761s6.466-8.654 6.483-13.851v-28.665c0 0-44.137 4.372-44.137 28.658zM22.069 89.808c-1.143 0-2.26-0.301-3.211-0.865s-1.691-1.366-2.128-2.305c-0.437-0.938-0.552-1.971-0.329-2.967s0.773-1.912 1.582-2.63 1.838-1.207 2.959-1.406c1.121-0.198 2.283-0.096 3.339 0.292s1.959 1.047 2.594 1.892c0.635 0.844 0.974 1.838 0.974 2.853 0.003 0.676-0.145 1.346-0.434 1.971s-0.714 1.194-1.251 1.673c-0.537 0.479-1.175 0.859-1.878 1.118s-1.456 0.393-2.217 0.393v-0.019z"></path>
<path fill="#afb1b8" d="M62.414 80.614v10.766h-2.218v-10.766h2.218zM66.703 85.213v1.73h-4.895v-1.73h4.895zM67.22 80.614v1.738h-5.413v-1.738h5.413zM77.35 85.745v0.51c0 0.818-0.111 1.553-0.333 2.204s-0.535 1.205-0.939 1.664c-0.404 0.453-0.887 0.801-1.449 1.042-0.557 0.242-1.176 0.362-1.856 0.362-0.675 0-1.294-0.121-1.856-0.362-0.557-0.242-1.040-0.589-1.449-1.042-0.409-0.459-0.727-1.013-0.954-1.664-0.222-0.651-0.333-1.385-0.333-2.204v-0.51c0-0.823 0.111-1.558 0.333-2.204 0.222-0.651 0.535-1.205 0.939-1.663 0.409-0.459 0.892-0.809 1.449-1.050 0.562-0.242 1.181-0.362 1.856-0.362 0.68 0 1.299 0.121 1.856 0.362 0.562 0.242 1.045 0.592 1.449 1.050 0.409 0.458 0.725 1.013 0.946 1.663 0.227 0.646 0.34 1.38 0.34 2.204zM75.11 86.255v-0.525c0-0.572-0.052-1.075-0.155-1.508s-0.256-0.799-0.458-1.094-0.449-0.518-0.74-0.666c-0.291-0.153-0.624-0.229-0.998-0.229s-0.707 0.076-0.998 0.229c-0.286 0.148-0.53 0.37-0.732 0.666-0.197 0.296-0.347 0.66-0.451 1.094s-0.155 0.937-0.155 1.508v0.525c0 0.567 0.052 1.070 0.155 1.508 0.104 0.434 0.256 0.801 0.459 1.102 0.202 0.296 0.448 0.52 0.739 0.673s0.624 0.229 0.998 0.229c0.375 0 0.707-0.076 0.998-0.229s0.535-0.377 0.732-0.673c0.197-0.301 0.348-0.668 0.451-1.102 0.104-0.439 0.155-0.942 0.155-1.508zM84.552 88.562c0-0.192-0.030-0.365-0.089-0.518-0.054-0.158-0.158-0.301-0.311-0.429-0.153-0.133-0.367-0.264-0.643-0.392s-0.634-0.261-1.072-0.399c-0.488-0.158-0.952-0.335-1.39-0.532-0.434-0.197-0.818-0.426-1.154-0.688-0.33-0.266-0.591-0.574-0.784-0.924-0.187-0.35-0.281-0.757-0.281-1.22 0-0.448 0.098-0.855 0.296-1.22 0.197-0.37 0.473-0.685 0.828-0.946 0.355-0.266 0.774-0.471 1.257-0.614 0.488-0.143 1.023-0.214 1.605-0.214 0.793 0 1.486 0.143 2.078 0.429s1.050 0.678 1.375 1.176c0.33 0.498 0.495 1.067 0.495 1.708h-2.203c0-0.316-0.067-0.592-0.2-0.828-0.128-0.242-0.325-0.431-0.592-0.569-0.261-0.138-0.592-0.207-0.991-0.207-0.384 0-0.705 0.059-0.961 0.178-0.256 0.113-0.449 0.269-0.577 0.466-0.128 0.192-0.192 0.409-0.192 0.651 0 0.182 0.044 0.348 0.133 0.495 0.094 0.148 0.232 0.286 0.414 0.414s0.407 0.249 0.673 0.362c0.266 0.114 0.574 0.224 0.924 0.333 0.587 0.177 1.102 0.377 1.545 0.599 0.448 0.222 0.823 0.471 1.124 0.747s0.528 0.589 0.68 0.939c0.153 0.35 0.229 0.747 0.229 1.19 0 0.468-0.091 0.887-0.274 1.257s-0.446 0.683-0.791 0.939c-0.345 0.256-0.757 0.451-1.235 0.584s-1.013 0.2-1.604 0.2c-0.532 0-1.058-0.069-1.575-0.207-0.518-0.143-0.988-0.357-1.412-0.643-0.419-0.286-0.754-0.651-1.006-1.094s-0.377-0.969-0.377-1.575h2.226c0 0.335 0.052 0.619 0.155 0.85s0.249 0.419 0.436 0.562c0.192 0.143 0.419 0.247 0.68 0.311 0.266 0.064 0.557 0.096 0.872 0.096 0.384 0 0.7-0.054 0.946-0.163 0.251-0.108 0.436-0.259 0.554-0.451 0.123-0.192 0.185-0.409 0.185-0.651zM93.092 80.614v10.766h-2.211v-10.766h2.211zM96.404 80.614v1.738h-8.784v-1.738h8.784zM104.893 89.649v1.73h-5.73v-1.73h5.73zM99.887 80.614v10.766h-2.218v-10.766h2.218zM104.146 84.998v1.686h-4.984v-1.686h4.984zM104.885 80.614v1.738h-5.723v-1.738h5.723zM106.187 80.614h4.015c0.823 0 1.531 0.123 2.122 0.37 0.596 0.246 1.055 0.611 1.375 1.094s0.481 1.077 0.481 1.782c0 0.577-0.099 1.072-0.296 1.486-0.192 0.409-0.466 0.752-0.821 1.028-0.35 0.271-0.761 0.488-1.235 0.651l-0.703 0.37h-3.49l-0.015-1.73h2.595c0.389 0 0.712-0.069 0.969-0.207s0.448-0.33 0.577-0.577c0.133-0.246 0.2-0.532 0.2-0.858 0-0.345-0.064-0.643-0.192-0.895s-0.323-0.444-0.584-0.577c-0.261-0.133-0.589-0.2-0.984-0.2h-1.797v9.028h-2.218v-10.766zM112.205 91.379l-2.455-4.799 2.344-0.015 2.484 4.71v0.104h-2.373zM123.851 87.542h-2.743v-1.73h2.743c0.424 0 0.769-0.069 1.035-0.207 0.266-0.143 0.461-0.34 0.584-0.592s0.185-0.535 0.185-0.85c0-0.32-0.062-0.619-0.185-0.895s-0.318-0.498-0.584-0.665-0.611-0.251-1.035-0.251h-1.974v9.028h-2.218v-10.766h4.192c0.843 0 1.565 0.153 2.166 0.458 0.606 0.301 1.070 0.717 1.39 1.25s0.481 1.141 0.481 1.826c0 0.695-0.16 1.296-0.481 1.804s-0.784 0.9-1.39 1.176c-0.601 0.276-1.323 0.414-2.166 0.414zM136.642 89.649v1.73h-5.73v-1.73h5.73zM131.637 80.614v10.766h-2.218v-10.766h2.218zM135.896 84.998v1.686h-4.984v-1.686h4.984zM136.635 80.614v1.738h-5.723v-1.738h5.723zM142.898 80.614v10.766h-2.211v-10.766h2.211zM146.21 80.614v1.738h-8.784v-1.738h8.784zM154.698 89.649v1.73h-5.73v-1.73h5.73zM149.693 80.614v10.766h-2.218v-10.766h2.218zM153.952 84.998v1.686h-4.984v-1.686h4.984zM154.691 80.614v1.738h-5.723v-1.738h5.723zM155.992 80.614h4.015c0.823 0 1.531 0.123 2.122 0.37 0.597 0.246 1.055 0.611 1.376 1.094s0.481 1.077 0.481 1.782c0 0.577-0.099 1.072-0.296 1.486-0.192 0.409-0.466 0.752-0.821 1.028-0.35 0.271-0.762 0.488-1.235 0.651l-0.702 0.37h-3.49l-0.015-1.73h2.595c0.389 0 0.712-0.069 0.969-0.207s0.448-0.33 0.577-0.577c0.133-0.246 0.2-0.532 0.2-0.858 0-0.345-0.064-0.643-0.192-0.895s-0.323-0.444-0.584-0.577c-0.261-0.133-0.589-0.2-0.984-0.2h-1.797v9.028h-2.218v-10.766zM162.011 91.379l-2.455-4.799 2.344-0.015 2.484 4.71v0.104h-2.373zM171.298 88.562c0-0.192-0.030-0.365-0.089-0.518-0.054-0.158-0.158-0.301-0.311-0.429-0.153-0.133-0.367-0.264-0.643-0.392s-0.634-0.261-1.072-0.399c-0.488-0.158-0.952-0.335-1.39-0.532-0.434-0.197-0.818-0.426-1.154-0.688-0.33-0.266-0.591-0.574-0.784-0.924-0.187-0.35-0.281-0.757-0.281-1.22 0-0.448 0.098-0.855 0.296-1.22 0.197-0.37 0.473-0.685 0.828-0.946 0.355-0.266 0.774-0.471 1.257-0.614 0.488-0.143 1.023-0.214 1.605-0.214 0.793 0 1.486 0.143 2.078 0.429s1.050 0.678 1.375 1.176c0.33 0.498 0.495 1.067 0.495 1.708h-2.203c0-0.316-0.067-0.592-0.2-0.828-0.128-0.242-0.325-0.431-0.592-0.569-0.261-0.138-0.592-0.207-0.991-0.207-0.384 0-0.705 0.059-0.961 0.178-0.256 0.113-0.449 0.269-0.577 0.466-0.128 0.192-0.192 0.409-0.192 0.651 0 0.182 0.044 0.348 0.133 0.495 0.094 0.148 0.232 0.286 0.414 0.414s0.407 0.249 0.673 0.362c0.266 0.114 0.574 0.224 0.924 0.333 0.587 0.177 1.102 0.377 1.545 0.599 0.448 0.222 0.823 0.471 1.124 0.747s0.528 0.589 0.68 0.939c0.153 0.35 0.229 0.747 0.229 1.19 0 0.468-0.091 0.887-0.274 1.257s-0.446 0.683-0.791 0.939c-0.345 0.256-0.757 0.451-1.235 0.584s-1.013 0.2-1.604 0.2c-0.532 0-1.058-0.069-1.575-0.207-0.517-0.143-0.988-0.357-1.412-0.643-0.419-0.286-0.754-0.651-1.006-1.094s-0.377-0.969-0.377-1.575h2.226c0 0.335 0.052 0.619 0.155 0.85s0.249 0.419 0.436 0.562c0.192 0.143 0.419 0.247 0.68 0.311 0.266 0.064 0.557 0.096 0.872 0.096 0.384 0 0.7-0.054 0.946-0.163 0.251-0.108 0.436-0.259 0.554-0.451 0.123-0.192 0.185-0.409 0.185-0.651z"></path>
</svg>
</svg>
