<?xml version="1.0" encoding="utf-8"?>
<!-- Generated by IcoMoon.io -->
<svg version="1.1" xmlns="http://www.w3.org/2000/svg" xmlns:xlink="http://www.w3.org/1999/xlink" width="1200" height="60" viewBox="0 0 1200 60">
<svg id="icon-Logo-3" width="106" height="60" viewBox="0 0 106 60" x="0" y="0">
<path fill="#afb1b8" d="M38 7l7.008 6.634-13.008-0.008v32.187h34v-12.307l7 6.627v-33.134h-35zM65.692 32.728l-19.87-18.81h19.87v18.81zM59.523 41.106h-22.143v-21.648h1.565v20.182h20.578v1.466zM42.609 50.099l-0.818 1.685-0.818-1.685h-0.686l1.194 2.246v1.309h0.62v-1.309l1.191-2.246h-0.684zM43.637 53.654l0.288-0.828h1.377l0.291 0.828h0.644l-1.345-3.555h-0.554l-1.343 3.555h0.642zM44.613 50.854l0.515 1.475h-1.030l0.515-1.475zM47.87 52.243c-0.089 0.137-0.134 0.287-0.134 0.452 0 0.299 0.105 0.543 0.315 0.73 0.212 0.186 0.493 0.278 0.845 0.278s0.654-0.095 0.908-0.286l0.2 0.237h0.688l-0.522-0.618c0.205-0.28 0.308-0.639 0.308-1.077h-0.515c0 0.239-0.050 0.457-0.149 0.652l-0.686-0.811 0.242-0.176c0.171-0.124 0.294-0.247 0.369-0.371 0.075-0.125 0.112-0.262 0.112-0.41 0-0.225-0.083-0.413-0.249-0.564-0.164-0.153-0.376-0.23-0.635-0.23-0.287 0-0.514 0.081-0.684 0.244-0.169 0.161-0.254 0.381-0.254 0.659 0 0.114 0.027 0.232 0.081 0.354 0.055 0.122 0.152 0.27 0.291 0.444-0.264 0.189-0.44 0.352-0.53 0.491zM49.474 53.029c-0.174 0.133-0.361 0.2-0.562 0.2-0.177 0-0.319-0.051-0.425-0.154s-0.159-0.236-0.159-0.4c0-0.19 0.098-0.36 0.293-0.508l0.076-0.054 0.776 0.916zM48.837 51.454c-0.168-0.207-0.251-0.378-0.251-0.515 0-0.119 0.034-0.217 0.103-0.295s0.16-0.117 0.276-0.117c0.107 0 0.196 0.033 0.266 0.1 0.070 0.065 0.105 0.144 0.105 0.237 0 0.14-0.051 0.255-0.151 0.344l-0.076 0.061-0.271 0.186zM54.623 53.385c0.244-0.213 0.384-0.509 0.42-0.889h-0.615c-0.033 0.254-0.11 0.435-0.232 0.544s-0.304 0.164-0.547 0.164c-0.265 0-0.467-0.101-0.605-0.303-0.137-0.202-0.205-0.495-0.205-0.879v-0.315c0.003-0.379 0.077-0.667 0.22-0.862 0.145-0.197 0.352-0.295 0.62-0.295 0.231 0 0.406 0.057 0.525 0.171 0.121 0.112 0.195 0.296 0.225 0.552h0.615c-0.039-0.389-0.178-0.69-0.417-0.903s-0.555-0.32-0.947-0.32c-0.291 0-0.548 0.069-0.772 0.207-0.221 0.138-0.391 0.335-0.51 0.591s-0.178 0.551-0.178 0.886v0.332c0.005 0.327 0.066 0.614 0.183 0.862s0.283 0.439 0.498 0.574c0.217 0.133 0.466 0.2 0.749 0.2 0.405 0 0.73-0.106 0.974-0.317zM58.253 52.887c0.121-0.264 0.181-0.57 0.181-0.918v-0.198c-0.002-0.347-0.064-0.65-0.186-0.911-0.122-0.262-0.295-0.462-0.52-0.601-0.223-0.14-0.479-0.21-0.769-0.21s-0.547 0.071-0.772 0.212c-0.223 0.14-0.396 0.343-0.52 0.608-0.122 0.265-0.183 0.571-0.183 0.918v0.2c0.002 0.34 0.063 0.64 0.186 0.901 0.124 0.261 0.298 0.461 0.522 0.603 0.226 0.14 0.483 0.21 0.772 0.21 0.291 0 0.548-0.070 0.771-0.21 0.225-0.142 0.397-0.343 0.518-0.606zM57.592 50.878c0.15 0.21 0.225 0.512 0.225 0.906v0.186c0 0.4-0.074 0.705-0.222 0.913-0.146 0.208-0.356 0.312-0.63 0.312-0.27 0-0.482-0.107-0.635-0.32-0.151-0.213-0.227-0.515-0.227-0.906v-0.205c0.003-0.383 0.080-0.678 0.23-0.886 0.151-0.21 0.361-0.315 0.627-0.315 0.273 0 0.484 0.105 0.632 0.315z"></path>
</svg>
<svg id="icon-Logo-2" width="106" height="60" viewBox="0 0 106 60" x="152" y="0">
<path fill="#afb1b8" d="M36.406 49.101c0.016 0 0.032 0.004 0.046 0.009s0.027 0.014 0.038 0.024l0.218 0.208c-0.169 0.169-0.379 0.304-0.613 0.396-0.275 0.1-0.572 0.149-0.87 0.142-0.28 0.005-0.559-0.040-0.818-0.133-0.234-0.085-0.444-0.213-0.616-0.374-0.176-0.168-0.311-0.364-0.398-0.578-0.095-0.238-0.142-0.489-0.139-0.742-0.004-0.254 0.047-0.506 0.15-0.744 0.095-0.215 0.239-0.412 0.423-0.578 0.186-0.163 0.409-0.291 0.654-0.377 0.268-0.091 0.554-0.136 0.843-0.133 0.267-0.006 0.534 0.035 0.783 0.121 0.216 0.081 0.414 0.194 0.586 0.334l-0.183 0.223c-0.013 0.016-0.028 0.029-0.046 0.040-0.022 0.013-0.048 0.019-0.074 0.017-0.028-0.002-0.056-0.010-0.079-0.024l-0.098-0.059-0.136-0.076c-0.059-0.028-0.12-0.053-0.183-0.073-0.081-0.025-0.164-0.045-0.248-0.059-0.107-0.017-0.216-0.025-0.324-0.024-0.207-0.002-0.413 0.032-0.605 0.099-0.179 0.063-0.341 0.158-0.474 0.279-0.136 0.129-0.241 0.281-0.308 0.445-0.077 0.189-0.115 0.387-0.112 0.588-0.003 0.203 0.035 0.405 0.112 0.597 0.067 0.163 0.169 0.314 0.303 0.443 0.125 0.12 0.28 0.214 0.453 0.275 0.178 0.064 0.369 0.096 0.562 0.095 0.111 0.002 0.222-0.005 0.333-0.019 0.18-0.019 0.352-0.073 0.504-0.159 0.076-0.044 0.148-0.093 0.215-0.147 0.028-0.023 0.065-0.037 0.104-0.038v0z"></path>
<path fill="#afb1b8" d="M42.704 48.054c0.003 0.251-0.047 0.501-0.147 0.737-0.089 0.214-0.229 0.409-0.411 0.572s-0.401 0.291-0.644 0.376c-0.534 0.177-1.124 0.177-1.658 0-0.241-0.085-0.46-0.214-0.641-0.377-0.182-0.166-0.323-0.363-0.414-0.578-0.196-0.477-0.196-0.999 0-1.476 0.093-0.215 0.234-0.413 0.414-0.58 0.183-0.158 0.401-0.281 0.641-0.362 0.533-0.18 1.125-0.18 1.658 0 0.242 0.085 0.461 0.214 0.643 0.377 0.179 0.165 0.32 0.359 0.412 0.571 0.101 0.237 0.151 0.489 0.147 0.742zM42.132 48.054c0.004-0.201-0.031-0.401-0.104-0.592-0.061-0.163-0.16-0.314-0.292-0.443-0.128-0.122-0.285-0.217-0.461-0.279-0.388-0.129-0.817-0.129-1.205 0-0.175 0.062-0.333 0.158-0.461 0.279-0.133 0.128-0.233 0.279-0.294 0.443-0.139 0.386-0.139 0.799 0 1.185 0.062 0.164 0.162 0.315 0.294 0.443 0.128 0.121 0.285 0.216 0.461 0.277 0.389 0.126 0.817 0.126 1.205 0 0.175-0.062 0.333-0.156 0.461-0.277 0.131-0.129 0.23-0.28 0.292-0.443 0.073-0.191 0.108-0.391 0.104-0.592v0z"></path>
<path fill="#afb1b8" d="M47.001 48.675l0.057 0.133c0.022-0.047 0.041-0.090 0.063-0.133 0.021-0.044 0.044-0.088 0.071-0.13l1.393-2.201c0.027-0.038 0.052-0.062 0.079-0.069 0.037-0.010 0.076-0.014 0.114-0.012h0.412v3.579h-0.488v-2.632c0-0.033 0-0.071 0-0.111-0.003-0.041-0.003-0.082 0-0.123l-1.401 2.231c-0.018 0.033-0.046 0.062-0.082 0.081s-0.077 0.030-0.12 0.030h-0.079c-0.042 0.001-0.084-0.010-0.12-0.029s-0.064-0.048-0.082-0.082l-1.442-2.246c0 0.043 0 0.085 0 0.128s0 0.081 0 0.114v2.632h-0.472v-3.572h0.412c0.039-0.002 0.077 0.002 0.114 0.012 0.034 0.015 0.061 0.039 0.076 0.069l1.423 2.203c0.028 0.041 0.052 0.083 0.071 0.128v0z"></path>
<path fill="#afb1b8" d="M52.244 48.497v1.341h-0.545v-3.574h1.216c0.23-0.004 0.458 0.023 0.679 0.078 0.176 0.043 0.34 0.119 0.48 0.223 0.121 0.097 0.214 0.217 0.273 0.351 0.064 0.146 0.096 0.301 0.093 0.457 0.002 0.157-0.032 0.312-0.101 0.457-0.066 0.137-0.166 0.26-0.294 0.358-0.14 0.108-0.304 0.188-0.483 0.237-0.212 0.059-0.434 0.087-0.657 0.083l-0.66-0.009zM52.244 48.113h0.66c0.143 0.002 0.286-0.017 0.423-0.054 0.113-0.033 0.217-0.085 0.305-0.154 0.082-0.066 0.145-0.147 0.185-0.237 0.045-0.096 0.067-0.198 0.065-0.301 0.006-0.099-0.012-0.199-0.055-0.291s-0.108-0.176-0.191-0.244c-0.208-0.141-0.47-0.21-0.733-0.192h-0.66v1.473z"></path>
<path fill="#afb1b8" d="M59.573 49.842h-0.431c-0.043 0.001-0.086-0.010-0.12-0.033-0.031-0.022-0.055-0.051-0.071-0.083l-0.371-0.865h-1.862l-0.384 0.865c-0.014 0.032-0.038 0.059-0.068 0.081-0.035 0.024-0.078 0.037-0.123 0.036h-0.431l1.636-3.58h0.567l1.658 3.58zM56.874 48.513h1.538l-0.649-1.457c-0.050-0.11-0.091-0.222-0.123-0.336l-0.063 0.187c-0.019 0.057-0.041 0.109-0.060 0.152l-0.643 1.455z"></path>
<path fill="#afb1b8" d="M61.929 46.28c0.033 0.016 0.061 0.037 0.082 0.064l2.386 2.698c0-0.043 0-0.085 0-0.126s0-0.081 0-0.118v-2.535h0.488v3.579h-0.273c-0.039 0.001-0.077-0.006-0.112-0.021-0.034-0.017-0.063-0.040-0.087-0.066l-2.383-2.696c0.003 0.041 0.003 0.082 0 0.123 0 0.040 0 0.076 0 0.109v2.551h-0.488v-3.579h0.289c0.034-0.001 0.067 0.005 0.098 0.017v0z"></path>
<path fill="#afb1b8" d="M68.903 48.419v1.421h-0.545v-1.421l-1.508-2.156h0.488c0.042-0.002 0.084 0.009 0.117 0.031 0.030 0.023 0.055 0.050 0.074 0.081l0.943 1.391c0.038 0.059 0.071 0.114 0.098 0.166s0.049 0.102 0.068 0.152l0.071-0.154c0.026-0.056 0.057-0.111 0.093-0.163l0.93-1.4c0.020-0.028 0.043-0.053 0.071-0.076 0.032-0.024 0.074-0.037 0.117-0.036h0.493l-1.51 2.165z"></path>
<path fill="#afb1b8" d="M46.731 40.256c0.237 0.026 0.477 0.047 0.72 0.066 3.679-1.43 6.791-3.77 8.948-6.728s3.262-6.403 3.177-9.904l-4.054-3.523c0.824 3.727 0.439 7.58-1.114 11.128s-4.21 6.65-7.677 8.96v0z"></path>
<path fill="#afb1b8" d="M45.284 40.092l0.109 0.019c3.704-2.302 6.528-5.516 8.107-9.227s1.84-7.749 0.749-11.59l-5.775-5.017c2.336 4.124 3.276 8.739 2.711 13.31s-2.611 8.907-5.901 12.506v0z"></path>
<path fill="#afb1b8" d="M64.868 27.827c-0.981 3.847-3.364 7.316-6.794 9.892-1.002 0.757-2.083 1.431-3.228 2.014 2.793-0.713 5.361-1.975 7.505-3.686s3.806-3.829 4.86-6.187l-2.342-2.032z"></path>
<path fill="#afb1b8" d="M63.949 27.26l-3.334-2.897c-0.064 3.303-1.145 6.531-3.13 9.349s-4.803 5.121-8.16 6.672h0.016c0.748-0 1.496-0.039 2.238-0.116 3.137-1.113 5.909-2.883 8.067-5.152s3.637-4.968 4.303-7.855v0z"></path>
<path fill="#afb1b8" d="M45.766 12.161l-3.978-3.461c-3.556 1.194-6.614 3.293-8.775 6.022s-3.322 5.962-3.333 9.274v0c0.013 3.66 1.431 7.212 4.029 10.093s6.228 4.927 10.315 5.814c3.648-3.862 5.784-8.634 6.098-13.623s-1.212-9.935-4.356-14.119v0z"></path>
<path fill="#afb1b8" d="M73.14 26.727c-0.014-4.343-2.006-8.503-5.54-11.574s-8.323-4.801-13.321-4.814v0c-2.31-0.002-4.599 0.368-6.754 1.092l24.356 21.161c0.834-1.87 1.261-3.859 1.26-5.865v0z"></path>
</svg>
<svg id="icon-Logo-1" width="106" height="60" viewBox="0 0 106 60" x="304" y="0">
<path fill="#afb1b8" d="M50.114 5.934h-0.137c-0.21-0.013-0.42-0.018-0.63-0.023v0h-0.455c-0.397 0-0.802 0.010-1.204 0.031-0.030-0.002-0.061-0.002-0.091 0-3.644 0.206-7.215 1.117-10.516 2.683l-0.433 0.209v22.141l1.012-0.343c0.888-0.305 1.834-0.58 2.813-0.834 2.647-0.679 5.364-1.041 8.095-1.076v2.909c-0.362 0.003-0.713 0.013-1.065 0.031h-0.083c-2.102 0.115-4.188 0.436-6.228 0.956-2.584 0.647-5.077 1.618-7.42 2.891v-28.397c2.433-1.419 5.054-2.485 7.784-3.166 2.397-0.619 4.861-0.937 7.336-0.946h0.428c0.511 0.013 1.009 0.036 1.477 0.071 1.233 0.087 2.456 0.281 3.655 0.582v2.863c-1.165-0.271-2.349-0.45-3.542-0.534-0.024-0.002-0.048-0.004-0.073-0.006-0.247-0.021-0.494-0.042-0.724-0.042zM55.153 8.861c0.635 0.048 1.293 0.071 1.958 0.071 2.602-0.009 5.192-0.342 7.713-0.989 2.583-0.649 5.075-1.622 7.417-2.894v27.891c-2.434 1.418-5.056 2.484-7.787 3.166-2.397 0.617-4.862 0.933-7.336 0.943-1.875 0.015-3.745-0.205-5.565-0.656v-28.071c0.43 0.099 0.873 0.191 1.323 0.267 0.739 0.125 1.518 0.216 2.277 0.272zM69.347 9.078l-1.012 0.341c-0.931 0.313-1.869 0.592-2.813 0.842-2.747 0.706-5.571 1.068-8.406 1.078-0.66 0-1.267-0.018-1.854-0.056l-0.807-0.053v22.777l0.693 0.061c0.643 0.056 1.305 0.084 1.973 0.084 2.233-0.009 4.457-0.297 6.62-0.857 1.781-0.447 3.514-1.069 5.173-1.859l0.433-0.208v-22.149z"></path>
<path fill="#afb1b8" d="M35.737 45.212c-0.145-0.151-0.321-0.269-0.515-0.348s-0.402-0.115-0.611-0.107c-0.223-0.003-0.444 0.038-0.65 0.122-0.189 0.075-0.362 0.189-0.506 0.333-0.143 0.145-0.254 0.318-0.326 0.509-0.079 0.2-0.119 0.413-0.116 0.628v3.794c-0.009 0.267 0.042 0.533 0.149 0.778 0.089 0.194 0.219 0.368 0.379 0.509 0.152 0.128 0.33 0.22 0.521 0.27 0.184 0.052 0.375 0.078 0.567 0.079 0.211 0.002 0.42-0.043 0.612-0.132 0.19-0.083 0.362-0.202 0.506-0.351 0.141-0.147 0.253-0.32 0.331-0.509 0.081-0.191 0.122-0.397 0.122-0.605v-0.425h-0.992v0.338c0.003 0.115-0.017 0.23-0.058 0.338-0.032 0.081-0.081 0.154-0.144 0.214-0.061 0.050-0.132 0.087-0.207 0.109-0.067 0.022-0.137 0.034-0.207 0.036-0.089 0.010-0.178-0.003-0.26-0.039s-0.153-0.093-0.205-0.165c-0.094-0.153-0.139-0.33-0.131-0.509v-3.537c-0.006-0.196 0.036-0.391 0.121-0.567 0.052-0.080 0.124-0.144 0.21-0.185s0.181-0.056 0.276-0.044c0.085-0.003 0.17 0.015 0.248 0.052s0.144 0.093 0.195 0.162c0.111 0.146 0.169 0.325 0.164 0.509v0.328h0.982v-0.386c0.002-0.227-0.039-0.452-0.122-0.664-0.073-0.199-0.186-0.381-0.331-0.534v0z"></path>
<path fill="#afb1b8" d="M41.629 45.169c-0.316-0.267-0.715-0.414-1.128-0.417-0.202 0.001-0.402 0.037-0.592 0.107-0.193 0.069-0.37 0.174-0.524 0.31-0.164 0.148-0.295 0.329-0.385 0.532-0.1 0.232-0.149 0.482-0.144 0.735v3.639c-0.007 0.256 0.042 0.51 0.144 0.745 0.090 0.196 0.221 0.369 0.385 0.508 0.152 0.141 0.33 0.25 0.524 0.321 0.19 0.070 0.39 0.106 0.592 0.107 0.202-0 0.402-0.037 0.592-0.107 0.197-0.072 0.379-0.181 0.536-0.321 0.158-0.142 0.286-0.315 0.374-0.508 0.102-0.235 0.151-0.489 0.144-0.745v-3.639c0.005-0.252-0.044-0.503-0.144-0.735-0.088-0.201-0.216-0.381-0.374-0.532v0zM41.166 50.074c0.008 0.097-0.005 0.195-0.039 0.286s-0.088 0.173-0.158 0.241c-0.131 0.11-0.296 0.17-0.467 0.17s-0.336-0.060-0.467-0.17c-0.070-0.067-0.124-0.15-0.158-0.241s-0.048-0.189-0.039-0.286v-3.639c-0.008-0.097 0.005-0.195 0.039-0.286s0.088-0.173 0.158-0.241c0.131-0.11 0.296-0.17 0.467-0.17s0.336 0.060 0.467 0.17c0.070 0.067 0.124 0.15 0.158 0.241s0.048 0.189 0.039 0.286v3.639z"></path>
<path fill="#afb1b8" d="M49.367 51.699v-6.889h-0.954l-1.252 3.647h-0.018l-1.262-3.647h-0.944v6.889h0.984v-4.191h0.018l0.964 2.962h0.491l0.971-2.962h0.018v4.191h0.984z"></path>
<path fill="#afb1b8" d="M54.958 45.294c-0.152-0.17-0.343-0.299-0.557-0.376-0.23-0.075-0.471-0.111-0.713-0.107h-1.462v6.889h0.982v-2.69h0.506c0.306 0.014 0.611-0.051 0.885-0.188 0.223-0.124 0.409-0.306 0.539-0.526 0.113-0.183 0.19-0.387 0.225-0.6 0.039-0.259 0.056-0.521 0.053-0.783 0.010-0.331-0.023-0.662-0.096-0.984-0.066-0.238-0.19-0.456-0.362-0.633v0zM54.452 47.394c-0.004 0.125-0.035 0.247-0.091 0.359-0.056 0.106-0.145 0.191-0.253 0.242-0.145 0.065-0.304 0.095-0.463 0.086h-0.448v-2.342h0.506c0.152-0.008 0.304 0.022 0.443 0.086 0.101 0.058 0.182 0.147 0.23 0.254 0.054 0.121 0.083 0.252 0.086 0.384 0 0.145 0 0.297 0 0.458s0.010 0.325 0 0.473h-0.010z"></path>
<path fill="#afb1b8" d="M59.608 44.811h-0.804l-1.518 6.889h0.982l0.288-1.48h1.338l0.288 1.48h0.982l-1.556-6.889zM58.702 49.281l0.483-2.497h0.018l0.481 2.497h-0.982z"></path>
<path fill="#afb1b8" d="M65.95 48.961h-0.018l-1.482-4.15h-0.944v6.889h0.982v-4.142h0.020l1.5 4.142h0.923v-6.889h-0.982v4.15z"></path>
<path fill="#afb1b8" d="M71.948 44.811l-0.789 2.739h-0.020l-0.789-2.739h-1.040l1.348 3.977v2.912h0.982v-2.912l1.348-3.977h-1.040z"></path>
<path fill="#afb1b8" d="M33 53.645h0.473v1.327h0.321v-1.327h0.471v-0.272h-1.265v0.272z"></path>
<path fill="#afb1b8" d="M36.977 53.372l-0.62 1.599h0.341l0.132-0.364h0.638l0.137 0.364h0.349l-0.635-1.599h-0.341zM36.926 54.339l0.218-0.593 0.218 0.593h-0.435z"></path>
<path fill="#afb1b8" d="M40.908 54.382h0.369v0.206c-0.108 0.086-0.242 0.134-0.38 0.135-0.065 0.004-0.129-0.008-0.188-0.035s-0.111-0.067-0.151-0.118c-0.085-0.122-0.127-0.269-0.119-0.417 0-0.356 0.154-0.534 0.46-0.534 0.081-0.008 0.161 0.013 0.228 0.060s0.114 0.116 0.134 0.194l0.316-0.061c-0.068-0.313-0.293-0.47-0.678-0.47-0.206-0.006-0.406 0.068-0.559 0.206-0.081 0.080-0.143 0.176-0.183 0.282s-0.056 0.22-0.048 0.333c-0.009 0.219 0.064 0.433 0.205 0.6 0.078 0.081 0.173 0.143 0.278 0.184s0.217 0.057 0.329 0.050c0.25 0.007 0.493-0.084 0.678-0.254v-0.631h-0.693v0.269z"></path>
<path fill="#afb1b8" d="M44.923 53.372h-0.324v1.599h1.121v-0.272h-0.797v-1.327z"></path>
<path fill="#afb1b8" d="M48.318 53.372h-0.324v1.599h0.324v-1.599z"></path>
<path fill="#afb1b8" d="M51.637 54.441l-0.655-1.068h-0.314v1.599h0.301v-1.045l0.643 1.045h0.321v-1.599h-0.296v1.068z"></path>
<path fill="#afb1b8" d="M54.637 54.267h0.797v-0.272h-0.797v-0.351h0.858v-0.272h-1.181v1.599h1.214v-0.272h-0.891v-0.432z"></path>
<path fill="#afb1b8" d="M61.912 54.003h-0.63v-0.631h-0.321v1.599h0.321v-0.699h0.63v0.699h0.321v-1.599h-0.321v0.631z"></path>
<path fill="#afb1b8" d="M64.93 54.267h0.799v-0.272h-0.799v-0.351h0.86v-0.272h-1.181v1.599h1.212v-0.272h-0.89v-0.432z"></path>
<path fill="#afb1b8" d="M69.023 54.268c0.278-0.043 0.42-0.191 0.42-0.445 0.008-0.068-0.002-0.137-0.030-0.2s-0.071-0.117-0.127-0.156c-0.145-0.073-0.306-0.105-0.468-0.094h-0.678v1.599h0.321v-0.669h0.063c0.068-0.004 0.137 0.008 0.2 0.036 0.047 0.029 0.086 0.069 0.114 0.117l0.349 0.509h0.384l-0.195-0.313c-0.086-0.154-0.207-0.286-0.354-0.384v0zM68.699 54.046h-0.238v-0.402h0.253c0.11-0.009 0.221 0.004 0.326 0.038 0.023 0.021 0.042 0.046 0.054 0.075s0.018 0.060 0.016 0.091c-0.002 0.031-0.010 0.062-0.025 0.089s-0.036 0.051-0.061 0.070c-0.106 0.032-0.216 0.045-0.326 0.038v0z"></path>
<path fill="#afb1b8" d="M72.11 54.267h0.797v-0.272h-0.797v-0.351h0.86v-0.272h-1.184v1.599h1.214v-0.272h-0.89v-0.432z"></path>
</svg>
<svg id="icon-Object" width="125" height="60" viewBox="0 0 125 60" x="456" y="0">
<path fill="#afb1b8" d="M63.233 28.544c-0.591-0.786-0.873-1.716-0.806-2.651v-3.844c0-1.178 0.267-2.074 0.802-2.687s1.453-0.918 2.754-0.915c1.223 0 2.091 0.261 2.605 0.782 0.56 0.665 0.832 1.479 0.77 2.299v0.903h-2.188v-0.915c0.008-0.299-0.013-0.599-0.063-0.895-0.031-0.203-0.142-0.39-0.313-0.532-0.225-0.153-0.508-0.227-0.793-0.207-0.3-0.019-0.597 0.059-0.833 0.219-0.191 0.157-0.318 0.363-0.362 0.587-0.063 0.314-0.092 0.632-0.086 0.95v4.665c-0.035 0.45 0.062 0.901 0.281 1.31 0.109 0.139 0.26 0.248 0.437 0.317s0.372 0.095 0.564 0.074c0.28 0.020 0.558-0.056 0.775-0.211 0.178-0.153 0.293-0.352 0.326-0.567 0.051-0.309 0.074-0.622 0.068-0.935v-0.946h2.188v0.864c0.061 0.855-0.204 1.705-0.756 2.417-0.503 0.571-1.359 0.857-2.618 0.857s-2.211-0.305-2.749-0.939z"></path>
<path fill="#afb1b8" d="M72.343 28.583c-0.553-0.598-0.829-1.471-0.829-2.624v-4.044c0-1.142 0.276-2.006 0.829-2.593s1.477-0.879 2.772-0.876c1.286 0 2.206 0.292 2.759 0.876 0.553 0.587 0.833 1.451 0.833 2.593v4.044c0 1.142-0.281 2.018-0.843 2.62s-1.477 0.903-2.749 0.903c-1.273 0-2.215-0.305-2.772-0.899zM76.134 27.614c0.198-0.375 0.288-0.785 0.263-1.197v-4.951c0.025-0.403-0.063-0.806-0.258-1.173-0.111-0.141-0.266-0.253-0.447-0.322s-0.381-0.093-0.577-0.069c-0.197-0.024-0.397 0-0.578 0.069s-0.337 0.18-0.45 0.322c-0.199 0.366-0.289 0.769-0.263 1.173v4.975c-0.028 0.411 0.063 0.822 0.263 1.197 0.127 0.126 0.285 0.227 0.461 0.297s0.368 0.105 0.562 0.105c0.194 0 0.386-0.036 0.562-0.105s0.334-0.17 0.461-0.297v-0.023z"></path>
<path fill="#afb1b8" d="M81.338 18.565h2.355l1.771 7.461 1.812-7.461h2.292l0.231 10.769h-1.694l-0.181-7.484-1.748 7.484h-1.359l-1.812-7.512-0.168 7.512h-1.712l0.213-10.769z"></path>
<path fill="#afb1b8" d="M92.44 18.565h3.669c2.114 0 3.171 1.019 3.171 3.058 0 1.953-1.113 2.927-3.338 2.925h-1.25v4.786h-2.265l0.014-10.769zM95.575 23.167c0.224 0.025 0.451 0.007 0.666-0.052s0.413-0.157 0.58-0.288c0.26-0.364 0.374-0.791 0.326-1.216 0.012-0.329-0.025-0.657-0.109-0.978-0.032-0.107-0.089-0.207-0.167-0.295s-0.175-0.162-0.286-0.217c-0.314-0.13-0.662-0.189-1.010-0.172h-0.879v3.218h0.879z"></path>
<path fill="#afb1b8" d="M102.546 18.565h2.432l2.496 10.769h-2.111l-0.494-2.483h-2.17l-0.507 2.483h-2.142l2.496-10.769zM104.625 25.603l-0.847-4.52-0.847 4.52h1.694z"></path>
<path fill="#afb1b8" d="M109.49 18.565h1.585l3.035 6.143v-6.143h1.88v10.769h-1.508l-3.053-6.413v6.413h-1.943l0.005-10.769z"></path>
<path fill="#afb1b8" d="M120.393 25.228l-2.523-6.648h2.124l1.54 4.27 1.445-4.27h2.079l-2.491 6.648v4.106h-2.174v-4.106z"></path>
<path fill="#afb1b8" d="M66.73 34.042v0.563h-1.848v4.376h-0.775v-4.376h-1.857v-0.563h4.48z"></path>
<path fill="#afb1b8" d="M72.524 38.982h-0.598c-0.061 0.003-0.121-0.013-0.168-0.047-0.045-0.029-0.080-0.068-0.1-0.113l-0.535-1.173h-2.564l-0.535 1.173c-0.015 0.049-0.043 0.094-0.082 0.133-0.047 0.033-0.107 0.049-0.167 0.047h-0.598l2.265-4.939h0.788l2.292 4.919zM68.773 37.148h2.138l-0.906-2.010c-0.067-0.152-0.123-0.307-0.168-0.465-0.032 0.094-0.059 0.184-0.086 0.262l-0.082 0.207-0.897 2.006z"></path>
<path fill="#afb1b8" d="M76.428 38.497c0.142 0.006 0.284 0.006 0.426 0 0.123-0.011 0.244-0.031 0.362-0.059 0.111-0.024 0.22-0.054 0.326-0.090 0.1-0.035 0.199-0.078 0.303-0.121v-1.111h-0.906c-0.022 0.001-0.045-0.002-0.066-0.009s-0.040-0.017-0.056-0.031c-0.015-0.011-0.027-0.025-0.035-0.041s-0.012-0.032-0.011-0.049v-0.379h1.757v1.893c-0.143 0.089-0.295 0.167-0.453 0.235-0.161 0.069-0.33 0.125-0.503 0.168-0.185 0.047-0.375 0.081-0.566 0.102-0.22 0.021-0.44 0.031-0.661 0.031-0.391 0.003-0.778-0.059-1.142-0.184-0.339-0.118-0.647-0.293-0.906-0.516-0.252-0.225-0.451-0.491-0.584-0.782-0.143-0.327-0.213-0.675-0.208-1.025-0.005-0.352 0.064-0.702 0.204-1.033 0.13-0.293 0.329-0.559 0.584-0.782 0.259-0.222 0.567-0.397 0.906-0.512 0.388-0.126 0.799-0.188 1.214-0.184 0.211-0 0.421 0.014 0.63 0.043 0.184 0.026 0.365 0.068 0.539 0.125 0.158 0.051 0.31 0.117 0.453 0.195 0.139 0.077 0.271 0.163 0.394 0.258l-0.217 0.305c-0.017 0.028-0.042 0.051-0.073 0.068s-0.067 0.026-0.103 0.026c-0.050-0.001-0.099-0.015-0.14-0.039-0.068-0.031-0.14-0.070-0.222-0.117-0.096-0.052-0.198-0.097-0.303-0.133-0.135-0.047-0.274-0.083-0.417-0.11-0.19-0.030-0.382-0.045-0.575-0.043-0.299-0.003-0.595 0.044-0.874 0.137-0.252 0.087-0.479 0.221-0.666 0.391-0.188 0.178-0.331 0.387-0.421 0.614-0.202 0.535-0.202 1.111 0 1.646 0.099 0.232 0.253 0.444 0.453 0.622 0.186 0.169 0.411 0.303 0.661 0.391 0.288 0.085 0.593 0.119 0.897 0.098v0z"></path>
<path fill="#afb1b8" d="M83.648 38.418h2.473v0.563h-3.23v-4.939h0.775l-0.018 4.376z"></path>
<path fill="#afb1b8" d="M88.694 38.981h-0.775v-4.939h0.775v4.939z"></path>
<path fill="#afb1b8" d="M91.575 34.066c0.046 0.023 0.086 0.053 0.118 0.090l3.311 3.723c-0.004-0.059-0.004-0.117 0-0.176 0-0.055 0-0.109 0-0.16v-3.52h0.675v4.959h-0.389c-0.058 0.004-0.116-0.005-0.168-0.027-0.047-0.025-0.089-0.056-0.122-0.094l-3.307-3.719c0 0.059 0 0.113 0 0.168s0 0.106 0 0.153v3.52h-0.648v-4.939h0.403c0.044 0 0.087 0.008 0.127 0.023v0z"></path>
<path fill="#afb1b8" d="M101.382 34.042v0.544h-2.745v1.631h2.224v0.524h-2.224v1.685h2.745v0.544h-3.542v-4.927h3.542z"></path>
<path fill="#afb1b8" d="M20.216 3.541l34.393 8.431v29.544l-34.393-8.427v-29.548zM18.010 1.022v33.501l38.801 9.514v-33.498l-38.801-9.518z"></path>
<path fill="#afb1b8" d="M38.805 59.59l-38.805-9.522v-33.498l38.805 9.518v33.502z"></path>
<path fill="#afb1b8" d="M18.653 3.161l33.945 8.325-14.436 12.467-33.949-8.329 14.44-12.463zM18.010 1.022l-18.010 15.548 38.805 9.518 18.005-15.548-38.801-9.518z"></path>
<path fill="#afb1b8" d="M40.989 57.705l15.822-13.663-15.822-3.883v17.546z"></path>
</svg>
<svg id="icon-Logo" width="106" height="60" viewBox="0 0 106 60" x="608" y="0">
<path fill="#afb1b8" d="M26.757 44.735c0.244 0.276 0.373 0.622 0.367 0.977 0.012 0.232-0.032 0.463-0.131 0.676s-0.248 0.404-0.438 0.558c-0.473 0.327-1.060 0.487-1.652 0.451h-2.904v-6.191h2.844c0.562-0.034 1.118 0.111 1.576 0.411 0.184 0.141 0.329 0.319 0.425 0.52s0.139 0.42 0.127 0.639c0.017 0.341-0.1 0.677-0.33 0.947-0.221 0.246-0.526 0.416-0.865 0.484 0.385 0.064 0.733 0.252 0.981 0.529v0zM23.351 43.801h1.216c0.276 0.019 0.551-0.054 0.773-0.206 0.091-0.076 0.162-0.17 0.208-0.275s0.064-0.218 0.053-0.33c0.009-0.112-0.010-0.224-0.055-0.329s-0.114-0.199-0.203-0.276c-0.229-0.156-0.512-0.23-0.796-0.209h-1.196v1.624zM25.459 46.175c0.098-0.078 0.174-0.175 0.224-0.284s0.071-0.227 0.063-0.345c0.007-0.119-0.015-0.239-0.066-0.349s-0.129-0.208-0.228-0.286c-0.238-0.161-0.53-0.241-0.826-0.224h-1.275v1.703h1.292c0.291 0.015 0.578-0.060 0.816-0.215v0z"></path>
<path fill="#afb1b8" d="M32.571 47.397l-1.582-2.42h-0.595v2.42h-1.361v-6.191h2.577c0.65-0.041 1.292 0.147 1.794 0.526 0.36 0.336 0.577 0.779 0.612 1.249s-0.114 0.936-0.421 1.313c-0.318 0.333-0.752 0.556-1.229 0.629l1.685 2.474h-1.48zM30.394 44.133h1.113c0.773 0 1.16-0.312 1.16-0.938 0.008-0.128-0.013-0.255-0.062-0.375s-0.125-0.229-0.222-0.321c-0.244-0.186-0.559-0.276-0.875-0.251h-1.127l0.013 1.884z"></path>
<path fill="#afb1b8" d="M40.010 46.151h-2.712l-0.479 1.246h-1.427l2.491-6.122h1.543l2.481 6.122h-1.427l-0.469-1.246zM39.647 45.213l-0.991-2.613-0.991 2.613h1.982z"></path>
<path fill="#afb1b8" d="M49.322 47.397h-1.351l-3.029-4.21v4.21h-1.348v-6.191h1.348l3.029 4.235v-4.235h1.351v6.191z"></path>
<path fill="#afb1b8" d="M57.033 45.915c-0.279 0.467-0.705 0.848-1.222 1.092-0.588 0.272-1.241 0.406-1.899 0.39h-2.405v-6.191h2.405c0.657-0.016 1.309 0.115 1.899 0.381 0.517 0.239 0.943 0.615 1.222 1.080 0.278 0.504 0.423 1.060 0.423 1.624s-0.145 1.121-0.423 1.624v0zM55.487 45.767c0.386-0.411 0.598-0.936 0.598-1.478s-0.212-1.066-0.598-1.477c-0.466-0.373-1.074-0.562-1.691-0.526h-0.938v4.008h0.938c0.618 0.035 1.225-0.154 1.691-0.526z"></path>
<path fill="#afb1b8" d="M40.856 6.767c0 0 17.439 6.028 17.069 14.751v14.754c0 0-17.425-6.031-17.062-14.754l-0.007-14.751z"></path>
<path fill="#afb1b8" d="M73.46 32.818c3.293-2.075 7.103-3.361 11.080-3.739v-4.619c-4.582 1.617-8.469 4.549-11.080 8.357v0z"></path>
<path fill="#afb1b8" d="M71.482 34.209c2.696-4.97 7.369-8.805 13.058-10.716v-13.309c0 0-24.835 8.587-24.31 21.009v21.006c0 0 1.107-0.384 2.847-1.104 0-0.671 0-1.349 0.079-2.030 0.514-5.767 3.508-11.111 8.324-14.857v0z"></path>
<path fill="#afb1b8" d="M69.12 42.013c0.13-1.457 0.422-2.898 0.869-4.301-2.999 3.235-4.815 7.249-5.193 11.479-0.036 0.399-0.056 0.799-0.066 1.21 1.411-0.62 3.052-1.394 4.777-2.305-0.44-2.001-0.57-4.048-0.386-6.083v0z"></path>
<path fill="#afb1b8" d="M70.107 42.089c-0.165 1.84-0.062 3.693 0.307 5.508 6.785-3.717 14.409-9.461 14.115-16.403v-0.605c-4.848 0.497-9.383 2.437-12.91 5.523-0.826 1.912-1.336 3.927-1.513 5.977v0z"></path>
</svg>
<svg id="icon-group-2" width="121" height="60" viewBox="0 0 121 60" x="760" y="0">
<path fill="#afb1b8" d="M18.78 18.718h-0.004c-3.426 0-6.203 2.468-6.203 5.512v0.004c0 3.044 2.777 5.512 6.203 5.512h0.004c3.426 0 6.203-2.468 6.203-5.512v-0.004c0-3.044-2.777-5.512-6.203-5.512z"></path>
<path fill="#afb1b8" d="M64.564 16.956c-0.010-4.229-1.904-8.282-5.268-11.272s-7.924-4.675-12.682-4.684v0c-4.76 0.008-9.322 1.691-12.688 4.682s-5.261 7.045-5.271 11.274v23.318c0 0 35.905-3.554 35.909-23.315v-0.004z"></path>
<path fill="#afb1b8" d="M0 47.928c0.009 2.942 1.327 5.762 3.668 7.843s5.513 3.254 8.824 3.262c3.31-0.009 6.482-1.181 8.822-3.261s3.66-4.899 3.67-7.84v-16.225c0 0-24.983 2.475-24.983 16.222zM12.492 50.835c-0.647 0-1.279-0.17-1.817-0.49s-0.957-0.773-1.205-1.305c-0.248-0.531-0.312-1.116-0.186-1.68s0.438-1.082 0.895-1.489 1.040-0.683 1.675-0.796c0.635-0.112 1.292-0.055 1.89 0.165s1.109 0.593 1.468 1.071c0.359 0.478 0.551 1.040 0.551 1.615 0.002 0.383-0.082 0.762-0.245 1.116s-0.404 0.676-0.708 0.947c-0.304 0.271-0.665 0.486-1.063 0.633s-0.824 0.222-1.255 0.222v-0.011z"></path>
<path fill="#afb1b8" d="M35.329 45.63v6.094h-1.256v-6.094h1.256zM37.756 48.234v0.979h-2.771v-0.979h2.771zM38.049 45.63v0.984h-3.064v-0.984h3.064zM43.783 48.535v0.289c0 0.463-0.063 0.879-0.188 1.247s-0.303 0.682-0.532 0.942c-0.229 0.257-0.502 0.453-0.82 0.59-0.315 0.137-0.665 0.205-1.050 0.205-0.382 0-0.732-0.068-1.051-0.205-0.315-0.137-0.589-0.333-0.82-0.59-0.232-0.26-0.412-0.573-0.54-0.942-0.126-0.368-0.188-0.784-0.188-1.247v-0.289c0-0.466 0.063-0.882 0.188-1.247 0.125-0.368 0.303-0.682 0.531-0.942 0.232-0.26 0.505-0.458 0.82-0.594 0.318-0.137 0.668-0.205 1.051-0.205 0.385 0 0.735 0.068 1.050 0.205 0.318 0.137 0.592 0.335 0.82 0.594 0.232 0.259 0.41 0.573 0.536 0.942 0.128 0.366 0.192 0.781 0.192 1.247zM42.515 48.824v-0.297c0-0.324-0.029-0.608-0.088-0.854s-0.145-0.452-0.259-0.619-0.254-0.293-0.419-0.377c-0.165-0.086-0.353-0.13-0.565-0.13s-0.4 0.043-0.565 0.13c-0.162 0.084-0.3 0.209-0.414 0.377-0.112 0.167-0.197 0.374-0.255 0.619s-0.088 0.53-0.088 0.854v0.297c0 0.321 0.029 0.606 0.088 0.854 0.059 0.246 0.145 0.453 0.26 0.624 0.114 0.167 0.254 0.294 0.418 0.381s0.353 0.13 0.565 0.13c0.212 0 0.4-0.043 0.565-0.13s0.303-0.213 0.414-0.381c0.112-0.17 0.197-0.378 0.255-0.624 0.059-0.248 0.088-0.533 0.088-0.854zM47.859 50.13c0-0.109-0.017-0.206-0.050-0.293-0.031-0.089-0.089-0.17-0.176-0.243-0.086-0.075-0.208-0.149-0.364-0.222s-0.359-0.148-0.607-0.226c-0.276-0.089-0.539-0.19-0.787-0.301-0.246-0.112-0.463-0.241-0.653-0.389-0.187-0.151-0.335-0.325-0.444-0.523-0.106-0.198-0.159-0.428-0.159-0.691 0-0.254 0.056-0.484 0.167-0.691 0.112-0.209 0.268-0.388 0.469-0.536 0.201-0.151 0.438-0.266 0.711-0.347 0.276-0.081 0.579-0.121 0.908-0.121 0.449 0 0.841 0.081 1.176 0.243s0.594 0.384 0.778 0.665c0.187 0.282 0.28 0.604 0.28 0.967h-1.247c0-0.179-0.038-0.335-0.113-0.469-0.073-0.137-0.184-0.244-0.335-0.322-0.148-0.078-0.335-0.117-0.561-0.117-0.218 0-0.399 0.034-0.544 0.101-0.145 0.064-0.254 0.152-0.327 0.264-0.072 0.109-0.109 0.232-0.109 0.368 0 0.103 0.025 0.197 0.075 0.28 0.053 0.084 0.131 0.162 0.234 0.234s0.23 0.141 0.381 0.205c0.151 0.064 0.325 0.127 0.523 0.188 0.332 0.1 0.624 0.213 0.875 0.339 0.254 0.126 0.466 0.266 0.636 0.423s0.299 0.333 0.385 0.532c0.087 0.198 0.13 0.423 0.13 0.674 0 0.265-0.052 0.502-0.155 0.712s-0.253 0.386-0.448 0.532c-0.195 0.145-0.428 0.255-0.699 0.331s-0.573 0.113-0.908 0.113c-0.301 0-0.599-0.039-0.891-0.117-0.293-0.081-0.559-0.202-0.799-0.364-0.237-0.162-0.427-0.368-0.569-0.619s-0.213-0.548-0.213-0.891h1.26c0 0.19 0.029 0.35 0.088 0.481s0.141 0.237 0.247 0.318c0.109 0.081 0.237 0.14 0.385 0.176 0.151 0.036 0.315 0.054 0.494 0.054 0.218 0 0.396-0.031 0.536-0.092 0.142-0.061 0.247-0.146 0.314-0.255 0.070-0.109 0.105-0.232 0.105-0.368zM52.693 45.63v6.094h-1.251v-6.094h1.251zM54.568 45.63v0.984h-4.972v-0.984h4.972zM59.373 50.745v0.979h-3.244v-0.979h3.244zM56.54 45.63v6.094h-1.256v-6.094h1.256zM58.95 48.112v0.954h-2.821v-0.954h2.821zM59.369 45.63v0.984h-3.239v-0.984h3.239zM60.106 45.63h2.273c0.466 0 0.866 0.070 1.201 0.209 0.338 0.139 0.597 0.346 0.778 0.619s0.272 0.61 0.272 1.009c0 0.326-0.056 0.607-0.167 0.841-0.109 0.232-0.264 0.425-0.465 0.582-0.198 0.153-0.431 0.276-0.699 0.368l-0.398 0.209h-1.975l-0.008-0.979h1.469c0.22 0 0.403-0.039 0.548-0.117s0.254-0.187 0.326-0.326c0.075-0.139 0.113-0.301 0.113-0.485 0-0.195-0.036-0.364-0.109-0.506s-0.183-0.251-0.331-0.326c-0.148-0.075-0.333-0.113-0.557-0.113h-1.017v5.11h-1.256v-6.094zM63.512 51.724l-1.39-2.716 1.327-0.008 1.406 2.666v0.059h-1.343zM70.104 49.552h-1.553v-0.979h1.553c0.24 0 0.435-0.039 0.586-0.117 0.151-0.081 0.261-0.192 0.331-0.335s0.105-0.303 0.105-0.481c0-0.181-0.035-0.35-0.105-0.506s-0.18-0.282-0.331-0.377-0.346-0.142-0.586-0.142h-1.117v5.11h-1.256v-6.094h2.373c0.477 0 0.886 0.086 1.226 0.259 0.343 0.17 0.606 0.406 0.787 0.707s0.272 0.646 0.272 1.034c0 0.393-0.091 0.734-0.272 1.021s-0.444 0.509-0.787 0.665c-0.34 0.156-0.749 0.234-1.226 0.234zM77.345 50.745v0.979h-3.244v-0.979h3.244zM74.511 45.63v6.094h-1.256v-6.094h1.256zM76.922 48.112v0.954h-2.821v-0.954h2.821zM77.341 45.63v0.984h-3.239v-0.984h3.239zM80.885 45.63v6.094h-1.251v-6.094h1.251zM82.76 45.63v0.984h-4.972v-0.984h4.972zM87.565 50.745v0.979h-3.244v-0.979h3.244zM84.732 45.63v6.094h-1.256v-6.094h1.256zM87.142 48.112v0.954h-2.821v-0.954h2.821zM87.561 45.63v0.984h-3.239v-0.984h3.239zM88.298 45.63h2.273c0.466 0 0.866 0.070 1.201 0.209 0.338 0.139 0.597 0.346 0.779 0.619s0.272 0.61 0.272 1.009c0 0.326-0.056 0.607-0.167 0.841-0.109 0.232-0.264 0.425-0.465 0.582-0.198 0.153-0.431 0.276-0.699 0.368l-0.398 0.209h-1.975l-0.008-0.979h1.469c0.22 0 0.403-0.039 0.548-0.117s0.254-0.187 0.326-0.326c0.075-0.139 0.113-0.301 0.113-0.485 0-0.195-0.036-0.364-0.109-0.506s-0.183-0.251-0.331-0.326c-0.148-0.075-0.333-0.113-0.557-0.113h-1.017v5.11h-1.256v-6.094zM91.704 51.724l-1.39-2.716 1.327-0.008 1.406 2.666v0.059h-1.343zM96.961 50.13c0-0.109-0.017-0.206-0.050-0.293-0.031-0.089-0.089-0.17-0.176-0.243-0.086-0.075-0.208-0.149-0.364-0.222s-0.359-0.148-0.607-0.226c-0.276-0.089-0.539-0.19-0.787-0.301-0.246-0.112-0.463-0.241-0.653-0.389-0.187-0.151-0.335-0.325-0.444-0.523-0.106-0.198-0.159-0.428-0.159-0.691 0-0.254 0.056-0.484 0.167-0.691 0.112-0.209 0.268-0.388 0.469-0.536 0.201-0.151 0.438-0.266 0.711-0.347 0.276-0.081 0.579-0.121 0.908-0.121 0.449 0 0.841 0.081 1.176 0.243s0.594 0.384 0.778 0.665c0.187 0.282 0.28 0.604 0.28 0.967h-1.247c0-0.179-0.038-0.335-0.113-0.469-0.073-0.137-0.184-0.244-0.335-0.322-0.148-0.078-0.335-0.117-0.561-0.117-0.218 0-0.399 0.034-0.544 0.101-0.145 0.064-0.254 0.152-0.327 0.264-0.072 0.109-0.109 0.232-0.109 0.368 0 0.103 0.025 0.197 0.075 0.28 0.053 0.084 0.131 0.162 0.234 0.234s0.23 0.141 0.381 0.205c0.151 0.064 0.325 0.127 0.523 0.188 0.332 0.1 0.624 0.213 0.875 0.339 0.254 0.126 0.466 0.266 0.636 0.423s0.299 0.333 0.385 0.532c0.087 0.198 0.13 0.423 0.13 0.674 0 0.265-0.052 0.502-0.155 0.712s-0.252 0.386-0.448 0.532c-0.195 0.145-0.428 0.255-0.699 0.331s-0.573 0.113-0.908 0.113c-0.301 0-0.599-0.039-0.892-0.117-0.293-0.081-0.559-0.202-0.799-0.364-0.237-0.162-0.427-0.368-0.569-0.619s-0.213-0.548-0.213-0.891h1.26c0 0.19 0.029 0.35 0.088 0.481s0.141 0.237 0.247 0.318c0.109 0.081 0.237 0.14 0.385 0.176 0.151 0.036 0.315 0.054 0.494 0.054 0.218 0 0.396-0.031 0.536-0.092 0.142-0.061 0.247-0.146 0.314-0.255 0.070-0.109 0.105-0.232 0.105-0.368z"></path>
</svg>
</svg>
