<?xml version="1.0" encoding="utf-8"?>
<!-- Generated by IcoMoon.io -->
<svg version="1.1" xmlns="http://www.w3.org/2000/svg" xmlns:xlink="http://www.w3.org/1999/xlink" width="1200" height="60" viewBox="0 0 1200 60">
<svg id="icon-envelope" width="80" height="60" viewBox="0 0 80 60" x="0" y="0">
<path fill="#757575" d="M72.5 0h-65c-4.136 0-7.5 3.364-7.5 7.5v45c0 4.135 3.364 7.5 7.5 7.5h65c4.135 0 7.5-3.365 7.5-7.5v-45c0-4.136-3.365-7.5-7.5-7.5zM72.5 5c0.339 0 0.663 0.070 0.958 0.194l-33.458 28.998-33.458-28.998c0.295-0.123 0.619-0.194 0.958-0.194h65zM72.5 55h-65c-1.379 0-2.5-1.12-2.5-2.5v-42.024l33.362 28.914c0.471 0.408 1.055 0.61 1.638 0.61s1.167-0.203 1.638-0.61l33.362-28.914v42.024c0 1.379-1.12 2.5-2.5 2.5z"></path>
</svg>
</svg>
