<?xml version="1.0" encoding="utf-8"?>
<!-- Generated by IcoMoon.io -->
<svg version="1.1" xmlns="http://www.w3.org/2000/svg" xmlns:xlink="http://www.w3.org/1999/xlink" width="18" height="18" viewBox="0 0 18 18">
<svg id="icon-email-black-18dp-1" width="18" height="18" viewBox="0 0 18 18" x="0" y="0">
<path d="M15 3h-12c-0.825 0-1.493 0.675-1.493 1.5l-0.008 9c0 0.825 0.675 1.5 1.5 1.5h12c0.825 0 1.5-0.675 1.5-1.5v-9c0-0.825-0.675-1.5-1.5-1.5zM14.7 6.188l-5.302 3.315c-0.24 0.15-0.555 0.15-0.795 0l-5.302-3.315c-0.188-0.12-0.3-0.323-0.3-0.54 0-0.503 0.548-0.802 0.975-0.54l5.025 3.142 5.025-3.142c0.428-0.262 0.975 0.037 0.975 0.54 0 0.217-0.113 0.42-0.3 0.54z"></path>
</svg>
<svg id="icon-phone-black-18dp-1" width="18" height="18" viewBox="0 0 18 18" x="0" y="0">
<path d="M13.996 11.123l-1.838-0.21c-0.441-0.051-0.876 0.101-1.187 0.413l-1.332 1.332c-2.048-1.042-3.727-2.714-4.769-4.769l1.339-1.339c0.311-0.311 0.463-0.745 0.412-1.187l-0.21-1.824c-0.087-0.731-0.702-1.281-1.44-1.281h-1.252c-0.818 0-1.498 0.68-1.447 1.498 0.384 6.18 5.326 11.116 11.499 11.499 0.818 0.051 1.498-0.63 1.498-1.447v-1.252c0.007-0.731-0.543-1.346-1.274-1.433v0z"></path>
</svg>
<svg id="icon-person-black-18dp-1" width="18" height="18" viewBox="0 0 18 18" x="0" y="0">
<path d="M9 9c1.657 0 3-1.342 3-3s-1.342-3-3-3c-1.657 0-3 1.342-3 3s1.342 3 3 3zM9 10.5c-2.003 0-6 1.005-6 3v0.75c0 0.413 0.337 0.75 0.75 0.75h10.5c0.413 0 0.75-0.338 0.75-0.75v-0.75c0-1.995-3.997-3-6-3z"></path>
</svg>
</svg>
