<?xml version="1.0" encoding="utf-8"?>
<!-- Generated by IcoMoon.io -->
<svg version="1.1" xmlns="http://www.w3.org/2000/svg" xmlns:xlink="http://www.w3.org/1999/xlink" width="1200" height="60" viewBox="0 0 1200 60">
<svg id="icon-smartphone-1" width="38" height="60" viewBox="0 0 38 60" x="0" y="0">
<path fill="#757575" d="M31.875 0h-26.25c-3.102 0-5.625 2.523-5.625 5.625v48.75c0 3.102 2.523 5.625 5.625 5.625h26.25c3.102 0 5.625-2.523 5.625-5.625v-48.75c0-3.102-2.523-5.625-5.625-5.625zM5.625 3.75h26.25c1.035 0 1.875 0.84 1.875 1.875v39.375h-30v-39.375c0-1.035 0.84-1.875 1.875-1.875zM31.875 56.25h-26.25c-1.035 0-1.875-0.84-1.875-1.875v-5.625h30v5.625c0 1.035-0.84 1.875-1.875 1.875z"></path>
<path fill="#757575" d="M8.826 51.521c0.732 0.684 0.732 1.793 0 2.476s-1.919 0.684-2.652 0c-0.732-0.684-0.732-1.792 0-2.476s1.919-0.684 2.652 0z"></path>
</svg>
</svg>
